<svg xmlns="http://www.w3.org/2000/svg" width="1433" height="1400"><g fill="none" fill-rule="evenodd" opacity=".899" style="mix-blend-mode:multiply"><path fill="#EF5AA9" d="M504.733 716.32c.07.958.392 1.879.92 2.67l-62.14 22.548-7.619-17.824a5.545 5.545 0 0 0 2.832-3.069c.238-.636.35-1.29.348-1.932l65.66-2.394zm.403-2.505l-210.6-78.41c.934-2.797-.525-5.875-3.312-6.915-2.862-1.065-6.059.383-7.112 3.241a5.565 5.565 0 0 0-.188.611L174.958 609.58a5.525 5.525 0 0 0-3.514-6.114 5.524 5.524 0 0 0-7.209 3.537l-108.733-29.75c.636-2.666-.813-5.477-3.446-6.449-2.735-1.017-5.777.25-6.97 2.87l-127.937-53.087v-.002c1.054-2.858-.396-6.038-3.245-7.102-2.862-1.077-6.058.371-7.112 3.242a5.504 5.504 0 0 0 3.246 7.09 5.482 5.482 0 0 0 3.265.194l29.754 104.265a5.535 5.535 0 0 0-3.735 6.285l-48.46 10.883a5.539 5.539 0 0 0-3.418-3.794 5.534 5.534 0 0 0-7.112 3.254c-1.065 2.859.397 6.026 3.259 7.103a5.496 5.496 0 0 0 5.268-.793l74.225 90.4a5.471 5.471 0 0 0-1.522 2.229 5.47 5.47 0 0 0 .782 5.264l-109.304 89.188a5.523 5.523 0 0 0-9.341 1.717c-1.066 2.834.396 6.026 3.258 7.09a5.548 5.548 0 0 0 5.983-1.426l110.435 95.344a5.51 5.51 0 0 0-.869 1.53c-1.065 2.846.397 6.039 3.246 7.09a5.512 5.512 0 0 0 7.092-3.178l205.348 70.831a5.51 5.51 0 0 0 3.347 6.792 5.518 5.518 0 0 0 7.111-3.242c.19-.506.3-1.024.336-1.538l162.723 5.979a5.524 5.524 0 0 0 10.705 1.927c1.078-2.846-.383-6.026-3.245-7.09a5.571 5.571 0 0 0-.099-.036l56.688-181.767c2.729.74 5.63-.69 6.636-3.398.808-2.142.175-4.458-1.392-5.932l36.894-41.884c.297.182.615.338.952.465 2.837 1.064 6.033-.384 7.099-3.254 1.065-2.846-.397-6.026-3.246-7.103a5.511 5.511 0 0 0-3.927.028l-15.11-35.348 62.21-22.59a5.5 5.5 0 0 0 2.439 1.797 5.514 5.514 0 0 0 7.11-3.255c1.079-2.845-.396-6.025-3.245-7.09-2.802-1.053-5.924.324-7.042 3.064zm-.135.364a5.488 5.488 0 0 0-.283 1.758l-65.657 2.404a5.558 5.558 0 0 0-3.58-4.798 5.54 5.54 0 0 0-6.967 2.874l-83.779-34.925-51.14-44.36c.322-.399.593-.85.798-1.346l210.608 78.393zm-75.165 8.637a5.47 5.47 0 0 0 1.779 1.07 5.463 5.463 0 0 0 3.922-.019l7.61 17.803-20.471 7.429-9.924-8.608 17.084-17.675zm-1.807-3.681a5.538 5.538 0 0 0 1.54 3.424l-17.105 17.682-22.536-19.548 38.101-1.558zm.34-2.37l-.012.032a5.532 5.532 0 0 0-.344 1.954l-38.507 1.575-43.868-38.051 82.73 34.49zm-29.28 41.312l23.515-8.54 33.866 29.373a5.56 5.56 0 0 0-.893 1.553c-.882 2.385.001 5.003 1.994 6.423l-36.872 41.834a5.563 5.563 0 0 0-1.563-.893 5.465 5.465 0 0 0-3.419-.152l-20.03-62.696a5.485 5.485 0 0 0 3.327-3.275 5.461 5.461 0 0 0 .074-3.627zm-3.762 7.016l20.021 62.7a5.506 5.506 0 0 0-2.633 1.992l-38.457-25.42 17.504-39.468.128.05a5.565 5.565 0 0 0 3.437.146zm-6.326-7.989a5.58 5.58 0 0 0-.344.752c-1.005 2.684.226 5.675 2.759 6.89l-17.48 39.407-44.547-29.444 2.955-46.348a5.536 5.536 0 0 0 4.778-2.49L389 757.105zm.2-.334l-51.875-31.236a5.532 5.532 0 0 0 .696-2.718l51.353-2.1 22.825 19.797-14.673 15.166a5.475 5.475 0 0 0-1.772-1.064 5.497 5.497 0 0 0-6.555 2.155zm8.608-.819l14.68-15.187 9.78 8.482-23.316 8.46a5.539 5.539 0 0 0-1.144-1.755zm-143.997-35.62l-53.195-59.616a5.477 5.477 0 0 0 1.354-2.057c1.078-2.858-.384-6.038-3.234-7.102a5.525 5.525 0 0 0-4.492.263l-21.835-38.477a5.5 5.5 0 0 0 2.124-2.4l106.473 44.389-24.327 65.174a5.466 5.466 0 0 0-2.868-.175zm-.415.102a5.53 5.53 0 0 0-3.65 3.385c-1.078 2.845.396 6.025 3.234 7.09.63.235 1.274.35 1.908.355l1.922 68.912a5.55 5.55 0 0 0-4.838 3.585 5.466 5.466 0 0 0-.324 2.407l-73.594 8.76a5.507 5.507 0 0 0-3.333-3.534 5.574 5.574 0 0 0-3.037-.23l-20.053-84.051a5.51 5.51 0 0 0 3.711-3.398c.868-2.318.067-4.858-1.8-6.302l40.197-56.08c.347.232.726.427 1.132.58 1.917.7 3.985.279 5.457-.941l53.068 59.462zm6.033 8.528l69.55 45.96-9.364 147a5.549 5.549 0 0 0-2.51.522L259.85 810.511a5.5 5.5 0 0 0 2.492-2.903c1.065-2.846-.397-6.026-3.246-7.09a5.499 5.499 0 0 0-1.89-.354l-1.933-68.911a5.546 5.546 0 0 0 4.156-2.292zm1.014-3.615a5.538 5.538 0 0 0-3.405-4.707l24.315-65.164 22.91 9.552 25.644 52.94a5.495 5.495 0 0 0-2.59 2.95 5.481 5.481 0 0 0-.356 1.946l-66.518 2.483zm-.786 3.272a5.576 5.576 0 0 0 .465-.957l.13-.113-.066-.073a5.527 5.527 0 0 0 .273-1.745l66.516-2.483a5.493 5.493 0 0 0 3.575 4.76c.46.174.93.281 1.397.329l-2.938 46.123-69.352-45.84zm27.532-89.85l-6.052 16.212-106.46-44.38a5.624 5.624 0 0 0 .196-.625l108.97 22.75a5.532 5.532 0 0 0 3.346 6.043zm4.33-.052l12.498 25.802-22.533-9.394 6.055-16.226a5.522 5.522 0 0 0 3.98-.182zm.354-.17a5.509 5.509 0 0 0 1.469-1.123l50.268 43.6-39.048-16.278-12.689-26.2zm-119.801-25.012l21.834 38.475a5.481 5.481 0 0 0-1.86 1.882L55.051 578.478a5.571 5.571 0 0 0 .35-.863l108.731 29.757a5.517 5.517 0 0 0 3.445 6.437 5.495 5.495 0 0 0 4.495-.275zM48.819 581.35l-9.58 46.526a5.514 5.514 0 0 0-4.888 1.592L-83.808 522.22a5.47 5.47 0 0 0 .807-1.27l127.937 53.087a6.231 6.231 0 0 0-.003.008c-1.066 2.858.396 6.038 3.258 7.115.208.076.418.14.628.19zm.372.075a5.551 5.551 0 0 0 5.679-2.617l136.99 75.424a5.6 5.6 0 0 0-.246.565c-.877 2.316-.065 4.86 1.81 6.309l-40.196 56.08a5.554 5.554 0 0 0-1.118-.575 5.55 5.55 0 0 0-6.263 1.733L59.23 654.313c.25-.365.46-.767.621-1.2 1.066-2.847-.396-6.027-3.246-7.103a5.545 5.545 0 0 0-5.528.973l-8.9-9.722a5.521 5.521 0 0 0 1.304-2.02 5.487 5.487 0 0 0-3.234-7.09 5.622 5.622 0 0 0-.637-.197l9.58-46.529zm-133.328-58.85l.058-.058 118.176 107.23a5.53 5.53 0 0 0-.96 1.645 5.442 5.442 0 0 0-.348 1.741l-14.384.033-102.542-110.59zm-2.201 1.331a5.55 5.55 0 0 0 1.917-1.07L17.88 633.166l-67.599.153a5.515 5.515 0 0 0-3.604-4.963 5.437 5.437 0 0 0-3.252-.19l-29.764-104.26zm-24.504 127.06a5.55 5.55 0 0 0 1.532-2.217 5.469 5.469 0 0 0 .253-2.947l48.464-10.87a5.5 5.5 0 0 0 3.406 3.768c2.567.965 5.393-.11 6.726-2.404l136.21 72.713a5.482 5.482 0 0 0-.406 3.728L-27.984 744.1a5.507 5.507 0 0 0-3.342-3.515 5.51 5.51 0 0 0-5.29.78l-74.225-90.4zM109.94 901.652l70.45 112.681a5.507 5.507 0 0 0-2.078 2.609l-205.338-70.856a5.46 5.46 0 0 0 .006-3.21l129.03-44.03a5.52 5.52 0 0 0 3.225 3.195 5.504 5.504 0 0 0 4.705-.39zm-4.901-9.876a5.504 5.504 0 0 0-3.05 3.175 5.46 5.46 0 0 0-.107 3.524l-129.034 44.018a5.515 5.515 0 0 0-2.327-2.756l88.08-159.815a5.522 5.522 0 0 0 4.271.304l42.167 111.55zm5.217 9.679a5.538 5.538 0 0 0 2.364-3.605l64.753 9.325 5.62 106.237a5.556 5.556 0 0 0-2.276.718l-70.461-112.675zm.265-8.977a5.524 5.524 0 0 0-1.851-.921l22.204-90.377 36.658 13.652c-.72 2.151-.022 4.461 1.611 5.887l-58.622 71.76zm2.155 4.986a5.545 5.545 0 0 0-1.868-4.752l58.628-71.755c.422.32.898.585 1.42.78a5.422 5.422 0 0 0 2.017.353l4.48 84.693-64.677-9.32zm-7.278-5.824L63.232 780.09a5.498 5.498 0 0 0 2.976-2.99l64.297 23.943-22.198 90.424a5.512 5.512 0 0 0-2.909.173zm-251.193-51.198l201.68-63.61a5.568 5.568 0 0 0 2.382 2.905l-88.081 159.817a5.537 5.537 0 0 0-6.552 1.164l-110.451-95.324a5.485 5.485 0 0 0 1.022-4.952zm-.931-1.864l109.31-89.182a5.529 5.529 0 0 0 9.373-1.821l83.808 25.959c-.277.988-.26 2 .004 2.936l-201.679 63.614a5.567 5.567 0 0 0-.816-1.506zm501.794 181.641a5.522 5.522 0 0 0-3.345 4.679L189 1018.93a5.542 5.542 0 0 0-.833-2.932l126.816-85.31a5.453 5.453 0 0 0 2.543 1.924 5.522 5.522 0 0 0 3.74.048l33.802 87.559zm.362-.14l-33.805-87.557a5.514 5.514 0 0 0 1.934-8.774l89.813-86.779a5.452 5.452 0 0 0 2.015 1.232l-56.69 181.764a5.495 5.495 0 0 0-3.267.114zm-167.477-4.4a5.486 5.486 0 0 0-2.491-1.92l34.704-100.42 93.79 13.506a5.558 5.558 0 0 0 .812 3.524l-126.815 85.31zm-4.576-2.288l-5.616-106.16 42.024 6.052-34.675 100.355a5.499 5.499 0 0 0-1.733-.247zm273.34-234.765l-33.706-29.237 20.287-7.367 15.119 35.368a5.572 5.572 0 0 0-1.7 1.236zm-201.173 32.342a5.512 5.512 0 0 0 3.967-.283l57.259 111.93a5.538 5.538 0 0 0-1.606 1.338l-78.23-59.133 18.61-53.852zm-3.85-4.43a5.548 5.548 0 0 0 3.487 4.305l-18.567 53.736-59.316-44.835a5.52 5.52 0 0 0 .657-1.249 5.486 5.486 0 0 0 .203-3.192l73.537-8.765zm71.585 116.92a5.53 5.53 0 0 0-1.402-.98l52.218-117.744 38.404 25.378a5.566 5.566 0 0 0-.462.957 5.493 5.493 0 0 0 1.066 5.623l-89.824 86.767zm-3.278-1.513l9.359-146.773 44.413 29.35-52.25 117.798a5.557 5.557 0 0 0-1.523-.374zm-5.077 2.325c-.265.375-.486.79-.656 1.24a5.573 5.573 0 0 0-.26.964l-93.715-13.503 16.507-47.766 78.124 59.065zm15.333-206.471l-25.448-52.545 39.705 16.552 44.438 38.543-50.946 2.084a5.515 5.515 0 0 0-3.59-4.757 5.5 5.5 0 0 0-4.159.123zm-234.126-5.23l48.56 8.46a5.537 5.537 0 0 0 3.965 6.074l-18.058 73.562-64.256-23.926c.867-2.608-.32-5.448-2.736-6.663l24.962-53.552.225.089c2.85 1.064 6.033-.384 7.111-3.254a5.54 5.54 0 0 0 .227-.79zm-10.686.53a5.527 5.527 0 0 0 2.771 3.262l-24.962 53.553a5.56 5.56 0 0 0-.225-.088c-2.862-1.064-6.046.371-7.111 3.242l-.038.104-83.807-25.97c.253-.92.255-1.861.041-2.742l113.331-31.362zm2.603-6.5l-30.375-50.776c.498-.32.947-.722 1.324-1.196l86.614 64.034a5.537 5.537 0 0 0-.853 1.986l-48.564-8.439a5.531 5.531 0 0 0-8.146-5.608zm-.326.195a5.53 5.53 0 0 0-.619.461l-68.34-73.704 14.027-.033a5.548 5.548 0 0 0 3.604 4.976 5.492 5.492 0 0 0 5.504-.977l8.895 9.725a5.527 5.527 0 0 0-1.311 2.01c-1.066 2.858.396 6.05 3.258 7.102a5.527 5.527 0 0 0 4.596-.331l30.386 50.77zm-1.79 1.873L-50.28 635.959a5.52 5.52 0 0 0 .563-2.245l67.955-.162 68.582 73.965c-.34.337-.64.722-.888 1.15zm85.38 102.585a5.518 5.518 0 0 0-3.644 3.216l-36.702-13.665 18.083-73.604a5.501 5.501 0 0 0 2.212.002l20.05 84.05zm5.757 8.795l59.412 44.917-16.57 47.952-42.17-6.077-4.485-84.768a5.548 5.548 0 0 0 3.813-2.024z"/><path fill="#599357" d="M1069.648 1092.739l-48.829-47.014-14.6 13.528a5.606 5.606 0 0 1 1.376 4.05 5.637 5.637 0 0 1-.486 1.96l60.557 29.599a5.693 5.693 0 0 1 1.982-2.123zm.34-.198a5.683 5.683 0 0 1 3.037-.667c3.125.21 5.495 2.872 5.32 5.992-.21 3.132-2.902 5.509-6.04 5.298-3.059-.194-5.393-2.76-5.305-5.793l-230.187-14.288c-.29 3.017-2.937 5.297-6.013 5.115a5.65 5.65 0 0 1-5.297-6.004c.014-.223.04-.441.078-.656l-111.667-24.055a5.65 5.65 0 0 1-5.854 4.252c-3.126-.198-5.507-2.872-5.297-5.992.007-.106.016-.21.028-.315l-114.374-17.431a5.678 5.678 0 0 1-5.933 4.613 5.668 5.668 0 0 1-5.318-5.605l-142.124-3.554v.003a5.671 5.671 0 0 1-6.016 5.299 5.679 5.679 0 0 1-5.321-6.004c.21-3.108 2.902-5.497 6.04-5.286a5.656 5.656 0 0 1 3.104 1.17l71.479-85.27a5.624 5.624 0 0 1-1.87-4.558 5.617 5.617 0 0 1 .992-2.88l-40.88-30.378a5.65 5.65 0 0 1-4.782 2.124c-3.125-.21-5.494-2.884-5.308-6.003a5.671 5.671 0 0 1 6.015-5.299 5.675 5.675 0 0 1 4.63 2.944l107.36-53.767a5.612 5.612 0 0 1-.503-2.716 5.625 5.625 0 0 1 2.917-4.615L507.71 709.131a5.663 5.663 0 0 1-2.737.509c-3.125-.186-5.507-2.885-5.296-6.004.186-3.107 2.878-5.497 6.003-5.299a5.69 5.69 0 0 1 5.027 3.82l143.372-43.292a5.671 5.671 0 0 1-.18-1.802 5.671 5.671 0 0 1 8.375-4.62l53.583-90.815a5.65 5.65 0 0 1-2.605-5.128 5.652 5.652 0 0 1 6.004-5.298 5.652 5.652 0 0 1 5.308 6.004 5.643 5.643 0 0 1-.892 2.711l164.748 114.26a5.665 5.665 0 0 1 4.898-2.26c3.126.199 5.507 2.885 5.309 6.005a5.655 5.655 0 0 1-.326 1.568l155.033 62.19a5.655 5.655 0 0 1 5.53-3.351 5.663 5.663 0 0 1 5.321 6.003c-.198 3.12-2.902 5.497-6.028 5.299a5.802 5.802 0 0 1-.102-.008l-22.826 193.89a5.7 5.7 0 0 1 4.816 5.947 5.68 5.68 0 0 1-3.795 4.992l17.083 54.584a5.687 5.687 0 0 1 6.395 5.97c-.198 3.108-2.902 5.497-6.028 5.287a5.628 5.628 0 0 1-3.657-1.646l-28.944 26.818 48.887 47.076zm-2.497 2.678l-60.554-29.608a5.677 5.677 0 0 1-5.358 2.99 5.641 5.641 0 0 1-5.308-5.595l-93.152-2.176-66.477 20.246a5.67 5.67 0 0 1 .194 1.623l230.189 14.276a5.632 5.632 0 0 1 .466-1.756zm-67.316-37.653a5.63 5.63 0 0 1 2.11-.267 5.713 5.713 0 0 1 3.661 1.66l14.59-13.507-16.083-15.484-12.913 3.932 8.635 23.666zm-3.23 2.702a5.694 5.694 0 0 1 2.865-2.568l-8.644-23.686-29.291 8.921 35.07 17.333zm-.665 2.367l.002-.038a5.606 5.606 0 0 1 .49-1.981l-35.449-17.513-57.058 17.378 92.015 2.154zm-10.203-50.895l18.475 17.79 44.032-13.408a5.592 5.592 0 0 1-.18-1.808 5.656 5.656 0 0 1 4.543-5.215l-17.067-54.53a5.667 5.667 0 0 1-1.862.19 5.655 5.655 0 0 1-3.259-1.287l-44.976 50.39a5.63 5.63 0 0 1 1.741 4.448 5.647 5.647 0 0 1-1.447 3.43zm-.602-8.15l44.982-50.386a5.673 5.673 0 0 1-1.641-2.963l-46.658 7.783-.079 44.275a5.675 5.675 0 0 1 3.396 1.29zm-9.264 4.857a5.644 5.644 0 0 1 5.47-6.15l.08-44.207-54.073 9.02-16.602 44.648a5.649 5.649 0 0 1 3.447 4.34l61.678-7.651zm.05.395l-61.68 7.641a5.696 5.696 0 0 1-.483 2.84l47.265 23.36 29.669-9.036-7.411-20.306a5.678 5.678 0 0 1-7.36-4.499zm7.728 4.364l7.417 20.327 12.726-3.875-18.322-17.64a5.703 5.703 0 0 1-1.821 1.188zm-149.856-26.631l-74.793 33.687a5.6 5.6 0 0 1 .413 2.507c-.198 3.107-2.89 5.496-6.016 5.298a5.655 5.655 0 0 1-4.086-2.136l-36.561 26.958c.619.9.983 1.982.995 3.14l118.355 2.77 4.435-71.198a5.668 5.668 0 0 1-2.742-1.026zm-.352-.272a5.624 5.624 0 0 1-2.016-4.678c.198-3.12 2.89-5.509 6.015-5.298a5.693 5.693 0 0 1 1.904.455l30.618-63.752a5.65 5.65 0 0 1-3.034-5.366c.051-.863.295-1.67.687-2.381l-65.327-38.872a5.632 5.632 0 0 1-4.606 1.898 5.623 5.623 0 0 1-2.932-1.025l-53.916 70.384a5.677 5.677 0 0 1 2.057 4.72 5.666 5.666 0 0 1-4.326 5.153l14.242 69.286c.42-.07.854-.092 1.297-.062a5.682 5.682 0 0 1 4.737 3.148l74.6-33.61zm9.205-5.458l84.412-14.086 52.655-141.626a5.71 5.71 0 0 1-2.126-1.526l-100.467 81a5.643 5.643 0 0 1 1.132 3.75 5.69 5.69 0 0 1-6.016 5.31 5.736 5.736 0 0 1-1.913-.464l-30.61 63.755a5.67 5.67 0 0 1 2.933 3.887zm-.556 3.79a5.672 5.672 0 0 1-5.158 2.99l-4.434 71.184 25.471.596 46.152-38.912a5.621 5.621 0 0 1-1.193-3.846c.041-.699.21-1.361.48-1.966l-61.318-30.046zm.62-3.406a5.702 5.702 0 0 1 .039 1.092l.082.183-.101.045a5.644 5.644 0 0 1-.468 1.737l61.324 30.034c1.016-1.892 3.071-3.125 5.345-2.971.505.03.99.124 1.447.274l16.521-44.438-84.189 14.044zm-11.736 95.657l1.103-17.708-118.34-2.765a5.995 5.995 0 0 1-.078.677l111.664 24.063a5.657 5.657 0 0 1 5.65-4.267zm4.055 1.861l22.505-18.974-25.06-.586-1.103 17.724a5.637 5.637 0 0 1 3.658 1.836zm.246.29c.39.495.7 1.056.91 1.66l65.34-19.897-43.406-1.014-22.844 19.251zm-122.758-26.463l36.559-26.961a5.624 5.624 0 0 1-.949-2.531l-159.962 13.588a5.688 5.688 0 0 1-.03.94l114.374 17.434c.515-2.768 3.042-4.783 5.918-4.612a5.696 5.696 0 0 1 4.09 2.142zm-128.993-21.182l10.459-47.581a5.691 5.691 0 0 1-3.917-3.522l-155.576 51.24c.142.486.22.998.223 1.526l142.122 3.554v-.003c.2-3.107 2.89-5.496 6.016-5.298.229.015.453.044.673.084zm.382.085c2.258.582 3.947 2.49 4.225 4.798l159.965-13.565a5.828 5.828 0 0 1 .005-.647c.142-2.534 1.967-4.6 4.33-5.16l-14.249-69.284c-.422.071-.86.095-1.306.067a5.662 5.662 0 0 1-5.147-4.236l-107.954 23.906c.082.447.112.911.081 1.386-.186 3.12-2.877 5.509-6.003 5.298a5.667 5.667 0 0 1-4.77-3.197l-12.41 5.401c.296.75.434 1.575.376 2.436-.186 3.107-2.878 5.496-6.004 5.298a5.777 5.777 0 0 1-.677-.083l-10.462 47.582zm-149.576-.418l.034.09 155.576-51.24a5.637 5.637 0 0 1 .2-3.725l-13.46-6.016-142.35 60.89zm-1.51-2.167a5.69 5.69 0 0 1 1.352 1.801l142.017-60.745-63.311-28.302a5.671 5.671 0 0 1-8.58 1.976l-71.477 85.27zm30.134-129.242c.379.822.563 1.746.498 2.71a5.63 5.63 0 0 1-.994 2.88l40.878 30.382a5.65 5.65 0 0 1 4.785-2.115 5.682 5.682 0 0 1 5.297 5.032l158.084-11.357a5.622 5.622 0 0 1 1.17-3.661l-93.138-76.591a5.675 5.675 0 0 1-4.596 1.892 5.66 5.66 0 0 1-4.624-2.94l-107.36 53.768zm311.735-142.855l113.125-76.225a5.592 5.592 0 0 1-.842-3.292L665.195 658.1a5.597 5.597 0 0 1-1.336 3.02l102.551 94.998a5.66 5.66 0 0 1 4.375-1.65 5.68 5.68 0 0 1 4.244 2.328zM766.303 764a5.59 5.59 0 0 1-1.522-4.234 5.574 5.574 0 0 1 1.366-3.366L663.59 661.407a5.68 5.68 0 0 1-3.354 1.63l15.79 186.4c.21-.01.421-.01.635.003a5.69 5.69 0 0 1 3.483 1.49L766.303 764zm8.937-6.895c.61.966.932 2.125.854 3.354a5.704 5.704 0 0 1-.154 1.001l64.617 18.24 49.662-97.174a5.664 5.664 0 0 1-1.847-1.631l-113.132 76.21zm-3.523 8.53a5.641 5.641 0 0 1-2.11.084l-16.955 93.913 40.089 2.489a5.655 5.655 0 0 1 3.954-4.866l-24.978-91.62zm4.117-3.801a5.701 5.701 0 0 1-3.731 3.696l24.967 91.623a5.615 5.615 0 0 1 1.659-.134 5.684 5.684 0 0 1 2.047.52l39.6-77.484-64.542-18.221zm-9.25 2.443l-86.154 86.936a5.621 5.621 0 0 1 1.537 4.032l70.286 4.363 16.969-93.96a5.686 5.686 0 0 1-2.638-1.37zM509.71 707.596l162.487 143.603a5.7 5.7 0 0 1 3.432-1.728L659.851 663.07a5.683 5.683 0 0 1-5.658-3.834l-143.37 43.303a5.642 5.642 0 0 1-1.113 5.057zm-1.651 1.36l65.2 129.077a5.678 5.678 0 0 1 2.726-.513c3.126.21 5.495 2.884 5.309 6.004a5.696 5.696 0 0 1-.01.125l89.409 10.576a5.678 5.678 0 0 1 1.242-2.732L509.459 707.878a5.72 5.72 0 0 1-1.4 1.078zm215.392-148.72a5.664 5.664 0 0 1-4.902 2.268 5.657 5.657 0 0 1-2.36-.68l-53.574 90.82a5.65 5.65 0 0 1 2.613 5.06l222.116 19.179a5.56 5.56 0 0 1 .853-2.384L723.451 560.236zm330.918 187.607a5.617 5.617 0 0 1-1.508-4.204 5.67 5.67 0 0 1 .324-1.582l-155.033-62.195a5.682 5.682 0 0 1-2.002 2.388l83.223 132.744a5.62 5.62 0 0 1 3.181-.746 5.705 5.705 0 0 1 3.522 1.52l68.293-67.925zm.273.273l-68.282 67.937a5.675 5.675 0 0 1 1.515 4.199 5.675 5.675 0 0 1-3.36 4.82l47.918 118.711a5.649 5.649 0 0 1 2.4-.319l22.827-193.886a5.65 5.65 0 0 1-3.018-1.462zm-158.841-65.648a5.68 5.68 0 0 1-3.131.755l-9.433 108.524 93.575 26.414a5.674 5.674 0 0 1 2.225-2.957L895.8 682.468zm-5.24.232l-49.626 97.107 41.912 11.83 9.427-108.448a5.677 5.677 0 0 1-1.713-.49zm158.136 333.793l-43.823 13.347 15.942 15.352 28.97-26.822a5.65 5.65 0 0 1-1.089-1.877zM873.62 902.386a5.692 5.692 0 0 1 3.59 1.914l100.467-81.001a5.623 5.623 0 0 1-.946-1.927l-98.052 22.812-5.059 58.202zm-5.462 2.557a5.677 5.677 0 0 1 5.065-2.593l5.048-58.071-74.331 17.294a5.636 5.636 0 0 1-1.052 4.522l65.27 38.848zm115.986-79.721c-.551.2-1.14.317-1.75.337l-.235 132.062 46.59-7.775a5.782 5.782 0 0 1-.04-1.104 5.664 5.664 0 0 1 3.366-4.815l-47.931-118.705zm-3.716.05l-52.582 141.412 53.916-8.997.235-132.13a5.725 5.725 0 0 1-1.569-.286zm-3.786-4.283a5.56 5.56 0 0 1-.091-1.43c.02-.348.072-.687.153-1.014l-93.502-26.398-4.488 51.632 97.928-22.79zm-71.92 199.812l-45.827 38.618 44.116 1.033 57.8-17.602-46.893-23.166a5.67 5.67 0 0 1-5.354 2.955 5.629 5.629 0 0 1-3.842-1.838zm-221.67-92.652l49.068 12.308c.722-2.488 3.104-4.244 5.79-4.073.159.01.315.025.469.047l13.803-76.43-70.24-4.359a5.653 5.653 0 0 1-5.342 5.104l1.014 60.564c.083.002.167.005.252.01 3.125.199 5.507 2.873 5.296 5.992a5.664 5.664 0 0 1-.11.837zm-9.781-4.939a5.668 5.668 0 0 1 3.946-1.894l-1.014-60.564a5.761 5.761 0 0 1-.249-.01c-3.138-.198-5.507-2.872-5.32-5.992.002-.044.006-.087.01-.131l-89.404-10.585a5.593 5.593 0 0 1-1.112 2.59l93.143 76.586zm-.284 7.18l-49.697 34.909a5.61 5.61 0 0 1 .743 1.682l107.953-23.915a5.658 5.658 0 0 1-.08-1.371 5.66 5.66 0 0 1 .117-.853l-49.064-12.308a5.655 5.655 0 0 1-5.8 4.089 5.67 5.67 0 0 1-4.172-2.234zm-.226-.32a5.65 5.65 0 0 1-.386-.69l-94.861 40.577 13.128 5.869a5.684 5.684 0 0 1 5.45-3.15 5.665 5.665 0 0 1 4.762 3.202l12.412-5.39a5.637 5.637 0 0 1-.394-2.44c.21-3.119 2.902-5.508 6.028-5.298a5.66 5.66 0 0 1 4.164 2.229l49.697-34.91zm-.89-2.49l-158.083 11.354a5.717 5.717 0 0 1-.41 2.353l63.644 28.45 95.198-40.719a5.626 5.626 0 0 1-.35-1.439zm122.896-60.543a5.632 5.632 0 0 1-2.05-4.52l-40.136-2.49-13.807 76.475a5.623 5.623 0 0 1 2.076.917l53.917-70.382zm9.086-5.836l74.453-17.327 4.506-51.837-42.058-11.875-39.633 77.553a5.676 5.676 0 0 1 2.732 3.486z"/><path fill="#48B0BC" d="M1133.943 13.315L1153.747 71l17.226-4.868a5.03 5.03 0 0 1 .555-3.817 5.09 5.09 0 0 1 1.197-1.382l-36.334-48.508a5.124 5.124 0 0 1-2.448.891zm-.37.02a5.082 5.082 0 0 1-2.696-.711c-2.416-1.437-3.234-4.559-1.796-6.987 1.45-2.416 4.572-3.22 6.988-1.784 2.365 1.406 3.198 4.427 1.885 6.83l178.41 105.638a5.12 5.12 0 0 1 6.91-1.636c2.403 1.437 3.22 4.571 1.771 6.974a5.185 5.185 0 0 1-.33.493l79.523 64.99a5.11 5.11 0 0 1 6.436-1.021c2.416 1.437 3.234 4.57 1.772 6.987a5.087 5.087 0 0 1-6.976 1.783 5.104 5.104 0 0 1-2.4-3.385l-40.315 6.663a5.055 5.055 0 0 1-.67 3.25 5.11 5.11 0 0 1-5.582 2.369l-16.996 61.391a5.09 5.09 0 0 1 1.057.477 5.066 5.066 0 0 1 1.785 6.974c-.13.222-.275.43-.431.624l34.221 29.953a5.119 5.119 0 0 1 6.328-.895 5.088 5.088 0 0 1 1.772 6.986 5.048 5.048 0 0 1-2.184 2l43.147 99.537a5.084 5.084 0 0 1 4.457.361c2.416 1.437 3.221 4.559 1.784 6.974a5.098 5.098 0 0 1-6.988 1.797c-2.417-1.437-3.222-4.572-1.785-6.987l.053-.087-67.232-45.08a5.061 5.061 0 0 1-2.11 1.696l71.172 181.643a5.061 5.061 0 0 1 4.295.417c2.429 1.437 3.234 4.571 1.785 6.987a5.09 5.09 0 0 1-6.976 1.784 5.103 5.103 0 0 1-2.451-5.11l-132.524-23.954a4.985 4.985 0 0 1-.603 1.512 5.098 5.098 0 0 1-8.59.299l-80.141 50.89a5.06 5.06 0 0 1-.026 5.167 5.069 5.069 0 0 1-6.963 1.796 5.102 5.102 0 0 1-1.81-6.986 5.122 5.122 0 0 1 1.844-1.811l-85.028-159.03a5.1 5.1 0 0 1-4.851-.196c-2.429-1.424-3.222-4.558-1.797-6.974.256-.432.566-.813.916-1.14l-98.608-113.306a5.077 5.077 0 0 1-5.797.427c-2.428-1.437-3.234-4.571-1.809-6.975 1.45-2.428 4.585-3.233 7.001-1.796l.087.053 97.78-146.14a5.102 5.102 0 0 1 3.673-9.193l8.704-50.76a5.141 5.141 0 0 1-.882-.416c-2.416-1.437-3.222-4.571-1.797-6.987a5.1 5.1 0 0 1 6.989-1.784 5.084 5.084 0 0 1 2.26 2.826l34.169-9.655-19.83-57.761zm3.094-1.117l36.334 48.508a5.11 5.11 0 0 1 5.527-.208c2.295 1.372 3.145 4.29 1.955 6.654l73.689 39.87 61.505 10.963a5.1 5.1 0 0 1 .503-1.373L1137.77 10.994a5.09 5.09 0 0 1-1.103 1.224zm38.45 57.72a5.015 5.015 0 0 1-1.78-.65 5.115 5.115 0 0 1-2.267-2.822l-17.21 4.864 6.52 18.993 11.943 2.129 2.794-22.515zm3.698-.838a5.112 5.112 0 0 1-3.35.881l-2.797 22.533 27.111 4.832-20.964-28.246zm1.498-1.617a5.05 5.05 0 0 1-1.22 1.41l21.193 28.543 52.769 9.406-72.742-39.359zm-12.708 44.981l-7.495-21.83-40.744-7.261a5.092 5.092 0 0 1-.608 1.54 5.085 5.085 0 0 1-5.766 2.304l-8.686 50.716a5.082 5.082 0 0 1 1.56.608 5.089 5.089 0 0 1 2.082 2.374l56.668-22.004a5.062 5.062 0 0 1 .426-4.274 5.074 5.074 0 0 1 2.563-2.173zm-2.862 6.772l-56.668 22.005c.34.972.388 2.04.101 3.057l40.545 12.848 18.22-35.47a5.088 5.088 0 0 1-2.198-2.44zm9.41-.098a5.21 5.21 0 0 1-.338.677 5.098 5.098 0 0 1-6.558 2.024l-18.192 35.416 46.991 14.89 31.599-29.01a5.115 5.115 0 0 1-.985-4.889l-52.517-19.108zm.123-.334l52.515 19.107a5.21 5.21 0 0 1 .337-.683c.33-.55.745-1.017 1.217-1.394l-28.26-38.075-27.46-4.894-2.398 19.322a5.098 5.098 0 0 1 4.049 6.617zm-4.397-6.66l2.4-19.34-11.767-2.098 7.43 21.642a5.105 5.105 0 0 1 1.937-.204zm109.058 82.68l73.674 3.58a5.06 5.06 0 0 1 .689-2.176 5.114 5.114 0 0 1 7-1.784 5.068 5.068 0 0 1 2.397 3.377l40.315-6.661a5.06 5.06 0 0 1 .484-2.917l-93.601-50.646-32.744 55.269a5.062 5.062 0 0 1 1.786 1.957zm.167.356a5.048 5.048 0 0 1-.319 4.569 5.083 5.083 0 0 1-8.32.64l-50.651 38.604a5.11 5.11 0 0 1 .225 5.554 5.084 5.084 0 0 1-1.537 1.62l36.362 57.898a5.1 5.1 0 0 1 4.483.357 5.046 5.046 0 0 1 1.922 2.028l72.02-34.37a5.099 5.099 0 0 1 5.86-7l17.016-61.386a5.124 5.124 0 0 1-3.57-4.932l-73.491-3.582zm-9.616.604l-73.342-23.242-100.226 92.022c.523.61.887 1.33 1.075 2.094l113.632-23.844a5.021 5.021 0 0 1 .626-3.47c1.45-2.428 4.585-3.233 7.001-1.784.525.31.974.7 1.34 1.146l50.651-38.605a5.12 5.12 0 0 1-.757-4.317zm2.01-2.82a5.1 5.1 0 0 1 5.35-.277l32.735-55.258-20.15-10.904-52.902 12.31a5.05 5.05 0 0 1-.617 3.571 5.112 5.112 0 0 1-1.193 1.38l36.776 49.177zm-1.904 2.484c.108-.304.247-.6.418-.888l.006-.17.096.004c.304-.473.675-.88 1.093-1.215l-36.776-49.176a5.094 5.094 0 0 1-6.539-.609l-31.448 28.874 73.15 23.18zm48.628-71.905l-8.145 13.746 93.59 50.638.006-.01c.105-.176.22-.344.341-.503l-79.522-64.99a5.083 5.083 0 0 1-6.27 1.119zm-2.474-3.141l-25.79 6.001 19.808 10.718 8.151-13.76a5.099 5.099 0 0 1-2.169-2.96zm-.083-.357a5.12 5.12 0 0 1-.048-1.695l-60.46-10.776 34.318 18.568 26.19-6.097zM1232.02 403.27l-121.816 14.822a5.033 5.033 0 0 1-.673 2.991l169.94 106.253a5.084 5.084 0 0 1 2.308-1.863l-43.144-118.148a5.114 5.114 0 0 1-4.18-.456 5.079 5.079 0 0 1-2.435-3.599zm9.932-2.212a5.057 5.057 0 0 1-.508 4.015 5.075 5.075 0 0 1-2.478 2.131l43.137 118.15a5.095 5.095 0 0 1 3.349.058l63.808-155.94a5.09 5.09 0 0 1-2.69-2.89l-104.618 34.476zm-9.975 1.865a5.062 5.062 0 0 1 .694-3.04 5.14 5.14 0 0 1 .527-.736l-44.242-41.068-79.603 57.607c.42.623.694 1.328.809 2.061l121.815-14.824zm6.292-5.393a5.133 5.133 0 0 1 1.74.796l52.095-68.382-31.068-18.394a5.102 5.102 0 0 1-5.175 2.279l-17.592 83.7zm-4.827 1.353a5.097 5.097 0 0 1 4.491-1.424l17.593-83.7a5.109 5.109 0 0 1-2.808-1.823l-63.465 45.928 44.19 41.02zm8.399 1.836l104.622-34.465a5.058 5.058 0 0 1 .425-3.874l-54.48-32.256-52.125 68.41c.722.59 1.25 1.35 1.558 2.185zm182.386 150.56L1353.05 369.64a5.097 5.097 0 0 1-3.455-.028l-63.818 155.934a5.112 5.112 0 0 1 2.969 5.386l132.525 23.94a5.067 5.067 0 0 1 .59-1.506 5.13 5.13 0 0 1 2.367-2.085zm-231.535 30.704a5.097 5.097 0 0 1 6.46 1.683l80.144-50.885a5.098 5.098 0 0 1-.022-5.13l-169.932-106.265a5.063 5.063 0 0 1-1.679 1.567l85.029 159.03zm-187.963-285.838a5.036 5.036 0 0 1-.525 3.982c-.254.43-.561.808-.908 1.133l98.609 113.307a5.127 5.127 0 0 1 2.591-1.095l-12.19-140.5a5.048 5.048 0 0 1-2.86-.706 5.11 5.11 0 0 1-2.201-2.66l-82.516 26.539zm-.108-.336l82.515-26.538a5.07 5.07 0 0 1 .512-3.991 5.118 5.118 0 0 1 4.677-2.49l10.313-114.802a5.108 5.108 0 0 1-2.062-.73L1002.8 293.4a5.07 5.07 0 0 1 1.822 2.41zm100.223 117.632a5.083 5.083 0 0 1 2.83.68l52.06-83.169-64.08-59.482a5.09 5.09 0 0 1-3.002 1.471l12.192 140.5zm4.301 1.958l79.547-57.566-28.7-26.641-52.03 83.108c.462.309.858.682 1.183 1.1zm10.284-332.376l40.55 7.228-6.463-18.825-34.186 9.661a5.06 5.06 0 0 1 .099 1.936zm93.374 163.148a5.17 5.17 0 0 1-2.102-3.014l-113.633 23.85c.11.633.1 1.29-.04 1.933l87.856 21.833 27.92-44.602zm5.41.174a5.128 5.128 0 0 1-5.113.013l-27.86 44.504 66.599 16.55a5.118 5.118 0 0 1 2.7-3.207l-36.327-57.86zm-125.54 16.476a5.08 5.08 0 0 1 1.536.442l54.35-105.802-40.49-12.831a5.04 5.04 0 0 1-.418.885 5.081 5.081 0 0 1-4.665 2.504l-10.314 114.802zm3.004 1.478l100.081-91.881-46.855-14.848-54.373 105.857.12.069c.383.228.727.499 1.027.803zm1.267 4.976a5.12 5.12 0 0 1-.523 1.195 5.1 5.1 0 0 1-.523.735l64.03 59.437 24.764-39.562-87.748-21.805zm139.505-130.789l52.5-12.223-34.91-18.89-53.446-9.525 28.044 37.77a5.089 5.089 0 0 1 5.492-.187 5.093 5.093 0 0 1 2.32 3.055zm139.457 164.985l-34.229-29.941a5.1 5.1 0 0 1-6.66.672l-42.396 55.641 54.446 32.235a5.098 5.098 0 0 1 6.376-1.906l24.012-48.983a5.095 5.095 0 0 1-1.988-7.095c.133-.221.28-.43.44-.623zm5.817 7.97a5.085 5.085 0 0 1-3.951-.095l-24.02 48.978c.07.036.139.075.207.115 2.416 1.437 3.221 4.572 1.784 6.987l-.054.09 67.234 45.079a5.083 5.083 0 0 1 1.953-1.621l-43.153-99.534zm-120.304-4.677a5.08 5.08 0 0 1-.204 4.485l31.103 18.415 42.416-55.676a5.078 5.078 0 0 1-1.297-1.599l-72.018 34.375zm-9.663.981l-66.709-16.577-24.862 39.714 28.803 26.736 63.523-45.97a5.115 5.115 0 0 1-.755-3.903z"/><path fill="#F44545" d="M1015.642 78.165l73.702 3.579a5.074 5.074 0 0 1 .695-2.175c1.438-2.414 4.574-3.218 6.991-1.795a5.143 5.143 0 0 1 2.402 3.392l40.328-6.65a5.04 5.04 0 0 1 .67-3.246 5.16 5.16 0 0 1 .335-.497L1057.44 2.742l-43.585 73.462a5.096 5.096 0 0 1 1.787 1.961zm.167.357a5.039 5.039 0 0 1-.319 4.567 5.065 5.065 0 0 1-6.966 1.795 5.136 5.136 0 0 1-1.351-1.154l-50.67 38.582c1.122 1.59 1.28 3.763.222 5.532a5.051 5.051 0 0 1-1.534 1.635l36.382 57.859a5.1 5.1 0 0 1 6.392 2.385l72.057-34.355a5.082 5.082 0 0 1 .276-4.626 5.105 5.105 0 0 1 5.576-2.364l17.023-61.35a5.08 5.08 0 0 1-1.06-.476 5.095 5.095 0 0 1-2.51-4.45l-73.518-3.58zm-9.62.61l-73.367-23.228-100.256 91.969a5.086 5.086 0 0 1 1.078 2.083l113.67-23.831a5.057 5.057 0 0 1 .623-3.468c1.45-2.426 4.586-3.23 7.003-1.782.526.31.976.701 1.343 1.15l50.67-38.582a5.094 5.094 0 0 1-.764-4.312zm2.002-2.811a5.128 5.128 0 0 1 5.362-.296l43.462-73.296-83.79 19.48a5.041 5.041 0 0 1-.62 3.587 5.11 5.11 0 0 1-1.188 1.375l36.774 49.15zm-1.89 2.46c.107-.3.244-.593.413-.877l.006-.172.097.005c.305-.47.677-.876 1.096-1.21l-36.784-49.14a5.063 5.063 0 0 1-5.503.192 5.14 5.14 0 0 1-1.04-.814L933.13 55.623l73.17 23.157zm134.687-8.28c1.59-1.813 4.293-2.298 6.433-1.026 2.417 1.436 3.235 4.556 1.784 6.982a5.194 5.194 0 0 1-.145.231l84.436 60.734c1.555-2.007 4.4-2.592 6.63-1.266 2.31 1.373 3.16 4.295 1.965 6.658l112.35 60.969.003-.005c1.438-2.414 4.586-3.218 6.99-1.782a5.075 5.075 0 0 1 1.785 6.982 5.095 5.095 0 0 1-6.978 1.783 5.09 5.09 0 0 1-2.03-2.233L1262 247.644a5.068 5.068 0 0 1-.372 4.422 5.05 5.05 0 0 1-1.975 1.9l20.276 41.06a5.096 5.096 0 0 1 6.488 7.242 5.11 5.11 0 0 1-6.99 1.783 5.09 5.09 0 0 1-2.5-4.235l-108.023-.814a5.042 5.042 0 0 1-.708 2.365 5.102 5.102 0 0 1-4.24 2.505l-.735 130.102a5.037 5.037 0 0 1 2.38.711c2.428 1.436 3.234 4.569 1.796 6.97-1.437 2.427-4.573 3.231-6.99 1.795a5.114 5.114 0 0 1-2.452-5.113l-132.568-23.925a5.022 5.022 0 0 1-.602 1.51c-1.425 2.427-4.56 3.22-6.978 1.783a5.058 5.058 0 0 1-1.61-1.493l-80.174 50.85a5.074 5.074 0 0 1-.022 5.181 5.07 5.07 0 0 1-6.966 1.783c-2.43-1.436-3.235-4.556-1.797-6.97a5.09 5.09 0 0 1 1.831-1.816l-85.05-158.938a5.072 5.072 0 0 1-4.845-.183 5.089 5.089 0 0 1-.89-8.109l-98.629-113.235a5.114 5.114 0 0 1-5.825.423c-2.405-1.436-3.223-4.556-1.785-6.983 1.45-2.414 4.574-3.218 6.99-1.782l.097.058 97.812-146.045c-2.119-1.522-2.782-4.444-1.432-6.743 1.45-2.414 4.586-3.219 7.003-1.783a5.068 5.068 0 0 1 2.09 2.374L906.04.451l.066.162.053-.158 57.318 20.834c.094-.235.207-.467.34-.692 1.45-2.414 4.586-3.219 7.003-1.783a5.102 5.102 0 0 1 2.326 3.058l84.19-19.581.036.167.013.008.118-.137 83.485 68.171zm-1.17 4.364l-40.327 6.657c.104.799.02 1.625-.275 2.407l133.658 54.521a5.026 5.026 0 0 1 .415-.74l-84.44-60.728a5.1 5.1 0 0 1-6.634 1.258 5.092 5.092 0 0 1-2.397-3.375zm94.612 69.718l-27.905 33.849a5.095 5.095 0 0 1 1.687 4.425l145.608 22.566a5.07 5.07 0 0 1 .447-1.32l-112.348-60.978a4.867 4.867 0 0 1-.008.013c-1.437 2.414-4.56 3.232-6.978 1.783a5.1 5.1 0 0 1-.503-.338zm-.279-.228c-1.567-1.382-2.14-3.616-1.414-5.572l-133.655-54.53c-.079.17-.168.339-.267.503a5.09 5.09 0 0 1-5.583 2.365l-17 61.356c.366.117.725.277 1.07.482a5.072 5.072 0 0 1 2.369 5.489l96.253 24.991c.117-.394.284-.78.504-1.15 1.438-2.415 4.573-3.22 6.978-1.783a5.078 5.078 0 0 1 2.509 4.513l12.154.748a5.04 5.04 0 0 1 .69-2.1c1.438-2.427 4.574-3.232 6.99-1.796.177.104.345.217.504.338l27.898-33.854zm119.606 61.507a5.06 5.06 0 0 1 .008-.081l-145.607-22.577a5.05 5.05 0 0 1-.623 1.637 5.13 5.13 0 0 1-1.054 1.263l8.32 10.341 138.956 9.417zm.317 2.344a5.102 5.102 0 0 1-.34-1.997l-138.63-9.387 39.078 48.575a5.105 5.105 0 0 1 5.662-.3 5.047 5.047 0 0 1 2.02 2.225l92.21-39.116zm-77.144 91.251a5.091 5.091 0 0 1 .7-2.388 5.122 5.122 0 0 1 1.986-1.888l-20.275-41.06a5.098 5.098 0 0 1-6.864-6.464l-131.25-55.535a5.086 5.086 0 0 1-2.432 2.45l43.157 99.46a5.094 5.094 0 0 1 4.46.365 5.078 5.078 0 0 1 2.496 4.245l108.022.815zm-308.215-12.968l-121.863 14.803a5.003 5.003 0 0 1-.675 2.991l169.988 106.192a5.122 5.122 0 0 1 2.318-1.872l-43.156-118.066a5.097 5.097 0 0 1-4.181-.461 5.115 5.115 0 0 1-2.43-3.587zm9.934-2.223a5.086 5.086 0 0 1-.513 4.027 5.088 5.088 0 0 1-2.473 2.122l43.155 118.066a5.097 5.097 0 0 1 3.34.059l63.829-155.836a5.128 5.128 0 0 1-.493-.258 5.095 5.095 0 0 1-2.194-2.622l-104.65 34.442zm-9.979 1.864a5.057 5.057 0 0 1 .691-3.037 5.12 5.12 0 0 1 .528-.735l-44.25-41.036-79.638 57.572a5.11 5.11 0 0 1 .808 2.05L968.67 286.13zm6.302-5.386a5.092 5.092 0 0 1 1.732.795l52.11-68.331-31.085-18.387a5.088 5.088 0 0 1-5.17 2.275l-17.587 83.648zm-4.838 1.35a5.114 5.114 0 0 1 4.491-1.423l17.6-83.645a5.116 5.116 0 0 1-1.385-.567 5.088 5.088 0 0 1-1.422-1.244l-63.482 45.892 44.198 40.988zm8.405 1.837l104.648-34.448a5.086 5.086 0 0 1 .413-3.87l-54.484-32.227-52.137 68.361a5.059 5.059 0 0 1 1.56 2.184zm182.441 150.458l-71.205-181.522a5.065 5.065 0 0 1-3.465-.03l-63.817 155.84a5.11 5.11 0 0 1 2.96 5.378l132.565 23.935a5.104 5.104 0 0 1 .592-1.522 5.108 5.108 0 0 1 2.37-2.079zm1.883-.417l.747-130.101a5.085 5.085 0 0 1-2.404-.709c-2.417-1.436-3.223-4.568-1.785-6.982l.055-.091-67.269-45.049a5.051 5.051 0 0 1-2.1 1.696l71.21 181.522a5.135 5.135 0 0 1 1.546-.286zm-233.485 31.104a5.088 5.088 0 0 1 6.455 1.685L1016 415.903a5.087 5.087 0 0 1-.026-5.126L845.987 304.586a5.088 5.088 0 0 1-1.668 1.557l85.059 158.933zM741.342 179.43a5.078 5.078 0 0 1-.52 3.985 5.06 5.06 0 0 1-.901 1.13l98.636 113.23a5.123 5.123 0 0 1 2.602-1.097L828.963 156.27a5.095 5.095 0 0 1-5.069-3.36l-82.552 26.52zm-.112-.347l82.553-26.52a5.08 5.08 0 0 1 .51-3.98 5.143 5.143 0 0 1 4.689-2.487L839.288 31.36a5.115 5.115 0 0 1-2.054-.723L739.42 176.684a5.082 5.082 0 0 1 1.81 2.399zm100.264 117.566a5.086 5.086 0 0 1 2.827.677l52.08-83.119-64.097-59.44a5.08 5.08 0 0 1-2.994 1.472l12.184 140.41zm4.3 1.958l79.58-57.53-28.713-26.628-52.046 83.061c.46.309.853.68 1.178 1.097zm103.693-169.125a5.127 5.127 0 0 1-2.1-3.012L833.72 150.314a5 5 0 0 1-.039 1.924l87.878 21.818 27.928-44.574zm5.414.178a5.108 5.108 0 0 1-5.117.009l-27.868 44.475 66.618 16.54a5.086 5.086 0 0 1 2.705-3.201l-36.338-57.823zm-125.573 16.467a5.01 5.01 0 0 1 1.533.448l54.362-105.74-40.505-12.824a5.11 5.11 0 0 1-.417.88 5.069 5.069 0 0 1-4.666 2.501l-10.307 114.735zm2.988 1.476L932.431 55.78l-46.859-14.835-54.4 105.79.111.065c.386.229.731.5 1.033.803zm1.277 4.98c-.12.407-.294.806-.525 1.187-.155.263-.33.507-.52.732l64.047 59.396 24.769-39.531-87.771-21.783zm11.143-127.952a5.07 5.07 0 0 1 .09 3.044l40.562 12.838L905.721.963 844.736 24.63zm118.622-3.01L906.194.842l-20.457 39.782 47.001 14.875 31.611-28.993a5.122 5.122 0 0 1-.991-4.885zm149.286 165.123l-34.233-29.924a5.09 5.09 0 0 1-6.667.674l-42.41 55.607 54.445 32.21a5.115 5.115 0 0 1 6.391-1.898l24.028-48.947a5.1 5.1 0 0 1-1.995-7.094 5.04 5.04 0 0 1 .441-.628zm5.826 7.969a5.102 5.102 0 0 1-3.95-.088l-24.031 48.944a5.067 5.067 0 0 1 1.916 7.173l67.27 45.05a5.063 5.063 0 0 1 1.95-1.62l-43.155-99.46zm3.155-5.628l54.12-7.648a5.074 5.074 0 0 1 .092-1.663l-96.258-24.981c-.118.39-.286.771-.505 1.136-.13.222-.276.431-.433.626l34.235 29.926a5.117 5.117 0 0 1 6.33-.891 5.092 5.092 0 0 1 2.419 3.495zm.05.347c.024.233.033.469.026.704l92.616 6.277-8.115-10.084a5.097 5.097 0 1 1-8.154-4.215l-12.154-.748a5.078 5.078 0 0 1-.69 2.122 5.11 5.11 0 0 1-6.991 1.783 5.092 5.092 0 0 1-2.42-3.498l-54.119 7.659zm-.308 2.363l131.253 55.526a5.084 5.084 0 0 1 1.293-1.708l-39.293-48.824-92.943-6.294a5.057 5.057 0 0 1-.31 1.3zm-123.25-1.752a5.068 5.068 0 0 1-.204 4.468l31.12 18.41 42.432-55.641a5.12 5.12 0 0 1-1.29-1.592l-72.057 34.355zm-9.666.973l-66.73-16.56-24.866 39.683 28.816 26.723 63.539-45.933a5.094 5.094 0 0 1-.759-3.913z"/><path fill="#567AD5" d="M877.35 294.431l19.811 57.68 17.232-4.873a5.05 5.05 0 0 1 .57-3.817 5.07 5.07 0 0 1 1.187-1.368l-36.35-48.514a5.1 5.1 0 0 1-2.45.892zm-.353.02a5.087 5.087 0 0 1-2.711-.714c-2.417-1.425-3.235-4.56-1.797-6.975a5.117 5.117 0 0 1 7.003-1.796 5.087 5.087 0 0 1 1.868 6.82l178.475 105.649c1.477-2.298 4.531-3.05 6.897-1.632a5.087 5.087 0 0 1 1.785 6.974 5.141 5.141 0 0 1-.33.495l79.538 64.99c1.598-1.81 4.305-2.297 6.448-1.023 2.417 1.437 3.235 4.558 1.785 6.986a5.111 5.111 0 0 1-.143.229l84.423 60.775c1.565-2.008 4.408-2.592 6.64-1.266a5.106 5.106 0 0 1 1.96 6.666l112.35 61.015.008-.014c1.45-2.416 4.574-3.221 6.99-1.784 2.418 1.437 3.223 4.57 1.786 6.987a5.093 5.093 0 0 1-6.979 1.783 5.11 5.11 0 0 1-2.023-2.231l-92.217 39.14a5.025 5.025 0 0 1-.372 4.424 5.094 5.094 0 0 1-1.977 1.898l20.283 41.1a5.092 5.092 0 0 1 4.686.25c2.43 1.437 3.235 4.571 1.797 6.987-1.437 2.415-4.573 3.22-6.978 1.796a5.107 5.107 0 0 1-2.508-4.255l-108.028-.815a5.05 5.05 0 0 1-.72 2.378 5.076 5.076 0 0 1-4.226 2.498l-.736 130.201a5.099 5.099 0 0 1 2.39.706c2.417 1.437 3.223 4.559 1.785 6.975a5.114 5.114 0 0 1-6.99 1.796 5.128 5.128 0 0 1-2.457-5.122l-132.565-23.954a5.016 5.016 0 0 1-.598 1.512 5.1 5.1 0 0 1-6.991 1.796 5.054 5.054 0 0 1-1.604-1.495l-80.167 50.89a5.075 5.075 0 0 1-.01 5.172c-1.426 2.44-4.574 3.22-6.991 1.796-2.417-1.437-3.223-4.57-1.797-6.974a5.098 5.098 0 0 1 1.836-1.818l-85.052-159.036a5.094 5.094 0 0 1-4.849-.195c-2.416-1.437-3.222-4.57-1.784-6.986a5.1 5.1 0 0 1 .902-1.122l-98.63-113.32a5.076 5.076 0 0 1-5.806.429c-2.417-1.437-3.235-4.559-1.81-6.987a5.128 5.128 0 0 1 7.102-1.731l97.802-146.141c-2.116-1.528-2.773-4.452-1.426-6.735a5.125 5.125 0 0 1 5.109-2.45l8.697-50.764a5.095 5.095 0 0 1-.872-.413c-2.43-1.45-3.235-4.571-1.797-6.987a5.1 5.1 0 0 1 6.99-1.784 5.038 5.038 0 0 1 2.259 2.822l34.18-9.663-19.833-57.753zm4.176-2.35c-.3.476-.669.884-1.085 1.22l36.344 48.52c1.592-1.106 3.747-1.257 5.509-.204 2.322 1.373 3.16 4.287 1.974 6.651l73.72 39.874 61.505 10.96c.1-.475.27-.941.516-1.386L881.173 292.102zm37.38 58.957a5.104 5.104 0 0 1-4.06-3.474l-17.216 4.865 6.524 18.992 11.957 2.13 2.795-22.513zm3.687-.84a5.115 5.115 0 0 1-3.341.883l-2.797 22.532 27.107 4.83-20.969-28.244zm1.502-1.613a5.111 5.111 0 0 1-1.211 1.398l21.2 28.554 52.774 9.403-72.763-39.355zm-12.703 44.971l-7.494-21.821-40.766-7.264a5.08 5.08 0 0 1-.603 1.529 5.097 5.097 0 0 1-5.77 2.317l-8.697 50.714a5.084 5.084 0 0 1 1.558.608 5.067 5.067 0 0 1 2.089 2.372l56.686-22.015a5.073 5.073 0 0 1 .421-4.28 5.127 5.127 0 0 1 2.576-2.16zm-2.865 6.776l-56.687 22.015c.337.968.382 2.033.094 3.047l40.56 12.846 18.227-35.475a5.11 5.11 0 0 1-2.194-2.433zm9.404-.105a5.13 5.13 0 0 1-.34.68 5.091 5.091 0 0 1-6.56 2.019l-18.198 35.422 47.01 14.889 31.606-29.01a5.146 5.146 0 0 1-.987-4.89l-52.531-19.11zm.123-.335l52.53 19.11c.093-.234.206-.463.338-.687a5.122 5.122 0 0 1 1.21-1.386l-28.264-38.073-27.456-4.892-2.398 19.318a5.057 5.057 0 0 1 1.793.65 5.081 5.081 0 0 1 2.247 5.96zm-4.386-6.653l2.4-19.336-11.783-2.1 7.433 21.641a5.114 5.114 0 0 1 1.95-.205zm109.075 82.67l73.7 3.591c.06-.746.285-1.491.69-2.18 1.45-2.416 4.585-3.221 7.002-1.784a5.095 5.095 0 0 1 2.398 3.381l40.33-6.655a5.083 5.083 0 0 1 .48-2.927l-93.624-50.64-32.754 55.26a5.1 5.1 0 0 1 1.778 1.954zm.172.367a5.077 5.077 0 0 1-.307 4.578 5.1 5.1 0 0 1-6.99 1.784 5.125 5.125 0 0 1-1.349-1.158l-50.662 38.61a5.08 5.08 0 0 1 .21 5.542 5.05 5.05 0 0 1-1.525 1.623l36.39 57.91a5.093 5.093 0 0 1 4.469.357 5.042 5.042 0 0 1 1.917 2.018l72.048-34.367a5.083 5.083 0 0 1 .288-4.634 5.116 5.116 0 0 1 5.587-2.36l17.01-61.393a5.115 5.115 0 0 1-3.573-4.938l-73.513-3.572zm-9.619.607l-73.37-23.243-100.25 92.023a5.08 5.08 0 0 1 1.075 2.095l113.66-23.845a5.034 5.034 0 0 1 .631-3.471c1.45-2.428 4.574-3.233 7.003-1.796a5.09 5.09 0 0 1 1.343 1.155l50.662-38.609a5.098 5.098 0 0 1-.754-4.309zm2.012-2.817a5.14 5.14 0 0 1 5.355-.289l32.744-55.25-20.16-10.904-52.914 12.314a5.016 5.016 0 0 1-.623 3.569 5.112 5.112 0 0 1-1.193 1.38l36.791 49.18zm-1.901 2.47a5.067 5.067 0 0 1 .425-.892l.005-.169.097.005c.304-.468.674-.87 1.09-1.202l-36.798-49.174a5.097 5.097 0 0 1-5.507.198 5.11 5.11 0 0 1-1.034-.815l-31.454 28.873 73.176 23.176zm48.641-71.894l-8.145 13.743 93.61 50.633.01-.016a5.34 5.34 0 0 1 .336-.493l-79.54-64.984a5.085 5.085 0 0 1-6.27 1.117zm-2.482-3.144l-25.789 6.002 19.814 10.717 8.152-13.755a5.118 5.118 0 0 1-2.177-2.964zm-.082-.348a5.091 5.091 0 0 1-.051-1.703l-60.46-10.773 34.326 18.567 26.185-6.09zm87.436 71.449l-40.33 6.663c.105.8.021 1.63-.27 2.42l133.652 54.554a5.114 5.114 0 0 1 .41-.74l-84.42-60.773a5.088 5.088 0 0 1-6.63 1.266 5.103 5.103 0 0 1-2.412-3.39zm94.608 69.772l-27.906 33.871a5.105 5.105 0 0 1 1.695 4.435l145.61 22.579c.085-.451.233-.897.447-1.325l-112.353-61.01a5.09 5.09 0 0 1-7.493 1.45zm-.273-.224a5.129 5.129 0 0 1-1.416-5.583l-133.651-54.558a5.119 5.119 0 0 1-5.85 2.874l-17.003 61.395c.363.116.718.275 1.06.48a5.094 5.094 0 0 1 2.388 5.49l96.24 24.997c.116-.393.281-.778.498-1.146 1.45-2.416 4.586-3.221 7.003-1.772a5.09 5.09 0 0 1 2.502 4.51l12.15.74c.07-.718.295-1.432.689-2.092a5.1 5.1 0 0 1 7.491-1.458l27.9-33.877zm119.609 61.548a5.06 5.06 0 0 1 .008-.08l-145.609-22.592a5.055 5.055 0 0 1-.623 1.637c-.29.491-.647.916-1.054 1.269l8.319 10.343 138.959 9.423zm.317 2.338a5.12 5.12 0 0 1-.34-1.991l-138.634-9.394 39.087 48.597a5.094 5.094 0 0 1 5.643-.29 5.11 5.11 0 0 1 2.031 2.228l92.213-39.15zm-77.142 91.324a5.094 5.094 0 0 1 2.687-4.277l-20.282-41.098a5.058 5.058 0 0 1-4.688-.257 5.11 5.11 0 0 1-2.182-6.212l-131.25-55.571a5.174 5.174 0 0 1-.241.454 5.05 5.05 0 0 1-2.183 2l43.157 99.527a5.078 5.078 0 0 1 4.46.358 5.097 5.097 0 0 1 2.496 4.25l108.026.826zm-308.222-12.976l-121.86 14.812a5.009 5.009 0 0 1-.675 2.987l170.001 106.269a5.085 5.085 0 0 1 2.316-1.88l-43.167-118.142a5.066 5.066 0 0 1-4.181-.47 5.072 5.072 0 0 1-2.434-3.576zm9.938-2.226a5.016 5.016 0 0 1-.526 4.018 5.05 5.05 0 0 1-2.462 2.132l43.156 118.146a5.057 5.057 0 0 1 3.349.064l63.829-155.94a5.092 5.092 0 0 1-2.698-2.895l-104.648 34.475zm-9.982 1.867a5.051 5.051 0 0 1 .693-3.04c.158-.265.337-.512.533-.737L932.39 639.2l-79.636 57.608c.416.619.69 1.319.806 2.047l121.86-14.813zm6.295-5.4c.48.116.952.302 1.401.564.12.072.237.149.35.229l52.1-68.364-31.09-18.401a5.09 5.09 0 0 1-5.167 2.28l-17.594 83.693zm-4.83 1.366a5.141 5.141 0 0 1 4.494-1.434l17.586-83.697a5.066 5.066 0 0 1-1.373-.565 5.113 5.113 0 0 1-1.425-1.248l-63.485 45.925 44.202 41.019zm8.406 1.829l104.651-34.464a5.044 5.044 0 0 1 .421-3.87l-54.498-32.255-52.126 68.397a5.107 5.107 0 0 1 1.552 2.192zm182.44 150.564l-71.192-181.652a5.1 5.1 0 0 1-3.467-.021l-63.826 155.943c.172.078.342.167.508.267a5.086 5.086 0 0 1 2.444 5.115l132.569 23.929a5.09 5.09 0 0 1 2.965-3.581zm1.883-.416l.736-130.2a5.033 5.033 0 0 1-2.38-.7c-2.429-1.438-3.234-4.572-1.797-6.987l.058-.096-67.26-45.072a5.084 5.084 0 0 1-2.11 1.693l71.2 181.65a5.16 5.16 0 0 1 1.553-.288zM936.128 863.1a5.121 5.121 0 0 1 4.854.189c.657.39 1.195.906 1.602 1.498l80.168-50.887a5.068 5.068 0 0 1-.013-5.125L852.743 702.498a5.07 5.07 0 0 1-1.672 1.568L936.128 863.1zm-188.02-285.844a5.019 5.019 0 0 1-.534 3.984 5.111 5.111 0 0 1-.907 1.137l98.637 113.315a5.136 5.136 0 0 1 2.606-1.102l-12.207-140.505a5.086 5.086 0 0 1-5.06-3.357l-82.534 26.528zm-.106-.333l82.528-26.545a5.052 5.052 0 0 1 .527-3.98 5.072 5.072 0 0 1 4.665-2.492l10.328-114.801a5.09 5.09 0 0 1-2.064-.728L746.178 574.51a5.063 5.063 0 0 1 1.824 2.412zM848.257 694.56a5.057 5.057 0 0 1 2.819.68l52.07-83.174-64.093-59.471a5.115 5.115 0 0 1-3.003 1.46l12.207 140.505zm4.289 1.96l79.575-57.57-28.712-26.64-52.04 83.114c.459.309.852.68 1.177 1.097zm10.295-332.377l40.572 7.23-6.466-18.83-34.202 9.664a5.06 5.06 0 0 1 .096 1.936zm93.387 163.134a5.118 5.118 0 0 1-2.096-2.999L840.47 548.125c.11.633.102 1.29-.035 1.93l87.866 21.83 27.927-44.608zm5.413.185a5.088 5.088 0 0 1-5.11.005l-27.868 44.508 66.616 16.55a5.13 5.13 0 0 1 2.724-3.2l-36.362-57.863zM836.07 543.937a5.102 5.102 0 0 1 1.544.447l54.363-105.803-40.503-12.831a5.24 5.24 0 0 1-.42.884 5.077 5.077 0 0 1-4.668 2.5L836.07 543.937zm3.011 1.482l100.105-91.882-46.87-14.848-54.386 105.857.119.068c.386.228.731.5 1.032.805zm1.268 4.984a5.07 5.07 0 0 1-.516 1.186 5.124 5.124 0 0 1-.534.743l64.04 59.427 24.765-39.557-87.755-21.8zM979.896 419.6l52.52-12.216-34.927-18.891-53.451-9.524 28.037 37.762a5.11 5.11 0 0 1 7.82 2.87zM1119.4 584.59l-34.238-29.94a5.116 5.116 0 0 1-6.675.67l-42.405 55.642 54.46 32.24a5.09 5.09 0 0 1 6.375-1.91l24.034-48.98a5.208 5.208 0 0 1-.2-.112c-2.417-1.437-3.235-4.571-1.785-6.987.131-.221.277-.43.434-.624zm5.81 7.971a5.093 5.093 0 0 1-3.945-.094l-24.026 48.985a5.094 5.094 0 0 1 1.93 7.181l67.26 45.072a5.087 5.087 0 0 1 1.948-1.62l-43.166-99.524zm3.162-5.64l54.121-7.653a5.12 5.12 0 0 1 .088-1.66l-96.243-24.994a5.15 5.15 0 0 1-.94 1.766l34.234 29.945a5.085 5.085 0 0 1 6.312-.896 5.085 5.085 0 0 1 2.428 3.492zm.05.358c.025.232.034.465.026.7l92.622 6.28-8.113-10.088a5.094 5.094 0 0 1-5.662.305 5.085 5.085 0 0 1-2.496-4.522l-12.149-.741a5.015 5.015 0 0 1-.696 2.105c-1.437 2.416-4.573 3.234-6.99 1.797a5.11 5.11 0 0 1-2.42-3.5l-54.122 7.664zm-.312 2.357l131.246 55.575c.07-.153.15-.304.236-.453a5.14 5.14 0 0 1 1.066-1.268l-39.285-48.854-92.95-6.298a5.027 5.027 0 0 1-.313 1.298zm-123.237-1.741a5.061 5.061 0 0 1-.214 4.465l31.125 18.425 42.43-55.674a5.081 5.081 0 0 1-1.3-1.597l-72.04 34.38zm-9.681.973l-66.729-16.576-24.863 39.71 28.812 26.737 63.54-45.969a5.09 5.09 0 0 1-.76-3.902z"/><path fill="#0ED383" d="M505.323 962.11a8.3 8.3 0 0 1 4.197.513l13.98-97.694-28.455-5.668a8.194 8.194 0 0 1-3.625 5.08 8.315 8.315 0 0 1-2.733 1.102l16.636 96.667zm-3.524 1.356L322.292 679.829a8.28 8.28 0 0 1-11.16-2.72 8.252 8.252 0 0 1 3.407-11.85L247.76 513.041c-3.627 1.443-7.888.16-10.054-3.254-2.419-3.851-1.277-8.953 2.58-11.392.129-.081.26-.158.391-.231l-76.962-149.738c-3.726 1.752-8.247.498-10.493-3.06-2.336-3.682-1.373-8.496 2.078-11.055L38.25 163.664l-.022.014c-3.857 2.427-8.955 1.276-11.386-2.563-2.431-3.851-1.29-8.953 2.567-11.393 3.858-2.427 8.968-1.287 11.399 2.576a8.2 8.2 0 0 1 1.267 4.712l161.916 11.488a8.274 8.274 0 0 1 3.804-6.12 8.232 8.232 0 0 1 4.242-1.27l1.065-74.13a8.224 8.224 0 0 1-6.566-3.837c-2.456-3.85-1.29-8.94 2.555-11.392 3.857-2.415 8.967-1.275 11.41 2.576a8.27 8.27 0 0 1 .474 7.969l155.224 80.705a8.262 8.262 0 0 1 2.781-2.912c3.857-2.44 8.967-1.275 11.398 2.576a8.24 8.24 0 0 1-2.736 11.47l63.765 114.475a8.29 8.29 0 0 1 9.854 1.76l207.141-177.717a8.312 8.312 0 0 1-.535-.754c-2.456-3.85-1.29-8.953 2.568-11.38 3.845-2.427 8.967-1.288 11.41 2.576a8.244 8.244 0 0 1 1.201 3.343l153.202-14.302a8.267 8.267 0 0 1 3.828-7.465c3.87-2.427 8.967-1.275 11.398 2.576 2.431 3.864 1.29 8.953-2.567 11.38a8.26 8.26 0 0 1-3.98 1.269l5.342 291.784a8.256 8.256 0 0 1 6.861 3.849 8.24 8.24 0 0 1-2.58 11.38 8.263 8.263 0 0 1-2.142.962l58.668 235.905c3.287-.698 6.806.664 8.7 3.664 2.43 3.851 1.29 8.953-2.568 11.392-3.882 2.44-8.98 1.288-11.41-2.575a8.397 8.397 0 0 1-.085-.136L656.781 794.704c1.936 3.757.705 8.428-2.94 10.733a8.287 8.287 0 0 1-9.142-.215l-50.024 66.745c.35.374.67.787.954 1.237 2.443 3.851 1.29 8.953-2.58 11.392-3.845 2.44-8.955 1.263-11.386-2.575a8.215 8.215 0 0 1-1.173-5.74l-56.417-11.238-14.004 97.822a8.228 8.228 0 0 1 3.37 3.018c2.42 3.851 1.266 8.953-2.58 11.38-3.869 2.427-8.967 1.288-11.398-2.563a8.252 8.252 0 0 1 2.338-11.234zm.48-.303a8.26 8.26 0 0 1 2.484-.956l-16.646-96.666c-3.108.42-6.313-.948-8.083-3.775-2.344-3.677-1.4-8.481 2.058-11.032L405.204 739.04l-80.686-61.108a8.207 8.207 0 0 1-1.74 1.59l179.502 283.64zm-10.401-112.467a8.21 8.21 0 0 1 2.11 2.265 8.234 8.234 0 0 1 1.17 5.734l28.423 5.665 4.605-32.178-15.663-11.863-20.645 30.377zm-5.951-1.514a8.282 8.282 0 0 1 5.475 1.191l20.657-30.405-35.534-26.912 9.402 56.126zm-3.353 1.222l.028-.018a8.272 8.272 0 0 1 2.753-1.108l-9.513-56.74-69.162-52.38 75.894 110.246zm51.532-55.449l-5.294 36.98 53.43 40.465a8.247 8.247 0 0 1 2-1.76 8.254 8.254 0 0 1 10.028.923l49.975-66.681a8.179 8.179 0 0 1-1.802-2.033 8.194 8.194 0 0 1-1.258-4.952l-98.01-10.02a8.214 8.214 0 0 1-3.784 5.854 8.244 8.244 0 0 1-5.285 1.224zm9.128-7.648l98.01 10.022a8.232 8.232 0 0 1 2.108-4.473l-49.035-48.384-52.468 37.69c.04.063.082.125.122.189a8.19 8.19 0 0 1 1.263 4.956zm-13.67-6.786c.312-.27.648-.52 1.008-.746 3.632-2.285 8.374-1.409 10.945 1.926l52.389-37.635-56.82-56.064-67.002 18.528a8.24 8.24 0 0 1-2.209 7.773l61.69 66.218zm-.418.388l-61.696-66.214c-.31.266-.643.512-1 .736a8.158 8.158 0 0 1-2.741 1.112l12.678 75.687 35.996 27.262 17.717-26.078a8.251 8.251 0 0 1-2.108-2.246 8.269 8.269 0 0 1 1.154-10.259zm1.44 12.833l-17.74 26.101 15.433 11.688 5.246-36.659a8.32 8.32 0 0 1-2.939-1.13zm-96.357-199.454l-103.68-59.441a8.209 8.209 0 0 1-2.61 2.62c-3.858 2.44-8.968 1.288-11.399-2.563a8.254 8.254 0 0 1-.964-6.646l-63.097-20.096a8.186 8.186 0 0 1-2.86 3.846l97.707 141.931 88.028-55.534a8.2 8.2 0 0 1-1.125-4.117zm.023-.645a8.233 8.233 0 0 1 3.83-6.373 8.241 8.241 0 0 1 11.386 2.576 8.174 8.174 0 0 1 1.094 2.65l101.575-18.32a8.249 8.249 0 0 1 3.769-8.165 8.264 8.264 0 0 1 3.398-1.213l-9.737-110.219a8.259 8.259 0 0 1-6.197-3.8 8.206 8.206 0 0 1-1.273-4.342l-129.292-3.514a8.204 8.204 0 0 1-3.84 6.46 8.283 8.283 0 0 1-9.802-.704l-69.832 75.932a8.253 8.253 0 0 1 1.5 9.746l103.42 59.286zm14.313 6.202l88.698 87.52 212.527-58.779a8.27 8.27 0 0 1-.002-3.818l-181.582-49.337a8.207 8.207 0 0 1-3.482 4.536c-3.845 2.44-8.967 1.275-11.398-2.576a8.224 8.224 0 0 1-1.087-2.649L450.665 593.06a8.267 8.267 0 0 1-2.1 6.785zm-4.971 2.58c-3.016.401-6.13-.882-7.934-3.535l-88.013 55.516 21.034 30.554 85.418 21.234a8.21 8.21 0 0 1 3.533-4.707c.87-.548 1.8-.915 2.75-1.112l-16.788-97.95zm4.564-2.17c-.379.356-.796.68-1.251.967l-.145.251-.14-.08a8.239 8.239 0 0 1-2.467.937l16.795 97.948a8.23 8.23 0 0 1 8.08 3.773 8.22 8.22 0 0 1 .903 1.935l66.687-18.444-88.462-87.287zM324.945 668.06l21.89-13.81-97.693-141.915a8.509 8.509 0 0 1-.872.484l66.796 152.21c3.54-1.41 7.68-.209 9.88 3.03zm1.26 6.342l41.625 10.348-20.674-30.033-21.91 13.82a8.234 8.234 0 0 1 .959 5.865zm-.14.57a8.24 8.24 0 0 1-1.198 2.505l79.3 60.058-35.841-52.065-42.262-10.498zm-73.41-167.364l63.093 20.108a8.234 8.234 0 0 1 2.168-3.287l-152.54-177.034a8.321 8.321 0 0 1-1.153.771l76.958 149.741c3.728-1.751 8.257-.508 10.516 3.064a8.259 8.259 0 0 1 .959 6.637zm-84.988-170.194l65.235-28.264a8.265 8.265 0 0 1 .838-7.627L40.337 161.769a8.245 8.245 0 0 1-1.603 1.563L155.77 333.987l.02-.013c3.857-2.427 8.967-1.288 11.398 2.576.179.282.338.57.479.863zm.23.528a8.243 8.243 0 0 1-2.08 9.076l152.532 177.037c.24-.193.493-.374.759-.543a8.293 8.293 0 0 1 9.804.714L398.75 448.3a8.304 8.304 0 0 1-1.196-1.48c-1.964-3.105-1.589-7.001.636-9.672L277.782 330.234a8.26 8.26 0 0 1-1.57 1.275c-3.869 2.44-8.967 1.3-11.385-2.563a8.238 8.238 0 0 1-.28-8.354l-16.985-10.026a8.278 8.278 0 0 1-14.43-.888l-65.235 28.263zM40.75 161.191a8.225 8.225 0 0 1-.073.111l193.397 139.76a8.22 8.22 0 0 1 2.112-1.908 8.251 8.251 0 0 1 2.45-1.043l-4.364-21.022L40.749 161.191zm1.284-3.61a8.288 8.288 0 0 1-.992 3.124l193.07 115.617-20.515-98.815a8.267 8.267 0 0 1-8.369-3.724 8.223 8.223 0 0 1-1.276-4.715L42.033 157.58zM220.71 82.805a8.184 8.184 0 0 1-2.787 2.912 8.238 8.238 0 0 1-4.25 1.27l-1.064 74.13a8.274 8.274 0 0 1 6.585 3.837 8.264 8.264 0 0 1-1.464 10.548l148.325 176.72a8.33 8.33 0 0 1 .673-.47 8.272 8.272 0 0 1 4.656-1.28l11.19-175.193a8.26 8.26 0 0 1-6.173-3.8 8.23 8.23 0 0 1-.465-7.974l-155.226-80.7zm428.486 234.926a8.262 8.262 0 0 1 5.694 3.74 8.236 8.236 0 0 1 .857 6.988l186.73 68.366a8.23 8.23 0 0 1 3.17-3.827L678.84 114.712a8.24 8.24 0 0 1-4.724 1L649.195 317.73zm-9.418 6.601a8.272 8.272 0 0 1 3.713-5.424 8.198 8.198 0 0 1 5.134-1.248l24.932-202.017a8.221 8.221 0 0 1-4.788-2.564l-207.14 177.717a8.212 8.212 0 0 1 1.754 6.141l176.395 27.395zm15.77 4.667a8.239 8.239 0 0 1-4.54 4.533l33.532 91.758 157.388-24.381a8.266 8.266 0 0 1 .354-3.55L655.547 329zm-13.07 3.116a8.277 8.277 0 0 1-1.567-1.827 8.312 8.312 0 0 1-.336-.578l-125.63 60.156 31.247 49.376a8.284 8.284 0 0 1 9.152.534l87.135-107.66zm7.985 1.616a8.286 8.286 0 0 1-7.533-1.251l-87.15 107.651a8.233 8.233 0 0 1 1.567 1.832 8.25 8.25 0 0 1 1.134 2.855l125.474-19.438-33.494-91.649zm-10.775-8.83l-176.394-27.394a8.22 8.22 0 0 1-3.463 5.269l54.804 86.6 125.688-60.184a8.134 8.134 0 0 1-.635-4.29zm204.67-224.997a8.238 8.238 0 0 1-6.849-3.842 8.252 8.252 0 0 1-1.207-3.359L683.1 107.007c.167 2.877-1.175 5.755-3.766 7.41l166.804 278.288a8.276 8.276 0 0 1 3.561-1.017l-5.34-291.784zm60.328 550.333a8.22 8.22 0 0 1 3.692-5.362 8.263 8.263 0 0 1 2.142-.962l-58.67-235.905a8.293 8.293 0 0 1-4.556-.324L761.2 619.123a8.227 8.227 0 0 1 4.83 8.576l138.655 22.538zm-.093.569l-138.655-22.538a8.23 8.23 0 0 1-3.696 5.367c-2.693 1.703-5.99 1.65-8.571.152l-99.604 157.838a8.22 8.22 0 0 1 2.425 2.562L905.429 655.61a8.21 8.21 0 0 1-.837-4.804zm-57.83-243.337a8.2 8.2 0 0 1-3.561-3.049l-136.504 81.506 48.562 132.887a8.314 8.314 0 0 1 5.415.098l86.088-211.442zm-4.746-5.991L684.74 425.84l21.755 59.53 136.407-81.45a8.23 8.23 0 0 1-.886-2.443zm-260.123 471.38l-53.174-40.272-4.565 31.889 56.447 11.25a8.222 8.222 0 0 1 1.292-2.868zm-14.335-303.852a8.251 8.251 0 0 1 .799 5.871l181.582 49.338a8.27 8.27 0 0 1 1.47-2.755L640.754 525.3l-73.197 43.706zm-7.683-4.258c2.866-.153 5.73 1.188 7.387 3.76l73.033-43.608-83.89-72.903a8.274 8.274 0 0 1-1.637 1.346 8.226 8.226 0 0 1-4.612 1.272l9.719 110.133zm193.305 68.731a8.291 8.291 0 0 1-1.888-1.767L594.794 744.13l48.966 48.315a8.257 8.257 0 0 1 1.25-.964 8.264 8.264 0 0 1 8.575-.158l99.595-157.844zm-3.237-4.34L537.73 687.824l56.653 55.9 156.57-112.479a8.26 8.26 0 0 1-1.01-2.106zm1.84-8.11a8.29 8.29 0 0 1 1.627-1.35 8.365 8.365 0 0 1 1.31-.67l-48.527-132.782-64.922 38.764 110.512 96.038zm-297.82 85.711l-84.786-21.06 36.466 52.972 70.06 53.06-12.586-75.07a8.29 8.29 0 0 1-8.065-3.775 8.22 8.22 0 0 1-1.09-6.127zm-79.49-340.458l27.286 68.363a8.276 8.276 0 0 1 10.118 3.935l102.234-48.953-54.77-86.543c-3.554 2.08-8.067 1.196-10.606-1.964l-70.798 52.892a8.252 8.252 0 0 1-3.464 12.27zm-2.507-15.774a8.24 8.24 0 0 1 5.628 3.044l70.804-52.881a8.437 8.437 0 0 1-.209-.313c-2.443-3.839-1.277-8.94 2.568-11.38l.155-.095-63.764-114.474a8.174 8.174 0 0 1-4.004.907l-11.178 175.192zm-8.727 5.802l-83.72-28.811a8.183 8.183 0 0 1-1.356 2.31l120.413 106.908c.46-.478.984-.909 1.57-1.278a8.25 8.25 0 0 1 1.091-.584l-27.296-68.361c-3.574 1.282-7.677-.029-9.781-3.363a8.214 8.214 0 0 1-.92-6.821zm.186-.541c.137-.357.298-.705.484-1.04l-128.963-77.235 4.258 20.498a8.286 8.286 0 0 1 8.392 3.726 8.274 8.274 0 0 1 .255 8.359l16.988 10.02a8.241 8.241 0 0 1 2.555-2.544c3.858-2.415 8.968-1.275 11.399 2.576a8.25 8.25 0 0 1 .914 6.826l83.718 28.814zm2.195-3.185L217.29 175.87a8.231 8.231 0 0 1-3.134 1.521l20.63 99.336 129.423 77.502c.39-.6.861-1.154 1.411-1.645zm176.493 93.282a8.264 8.264 0 0 1 3.592-6.318l-31.284-49.431-102.295 48.982a8.23 8.23 0 0 1 .694 3.242l129.293 3.525zm14.67 5.702l84.028 73.024 65.18-38.92-21.833-59.74-125.587 19.453a8.236 8.236 0 0 1-1.789 6.183z"/><path fill="#DE7426" d="M1151.298 946.813l-149.566-161.508a9.05 9.05 0 0 1-5.062 2.174l23.96 358.577a9.14 9.14 0 0 1 5.161 1.394l126.57-186.768a9.15 9.15 0 0 1-3.726-6.557 9.132 9.132 0 0 1 2.663-7.312zm13.677 12.1a9.112 9.112 0 0 1-6.398 3.486 9.103 9.103 0 0 1-5.685-1.357l-126.587 186.754a9.116 9.116 0 0 1 3.441 4.926l293.938-71.006a9.112 9.112 0 0 1 1.36-6.933l-160.07-115.87zm-13.203-12.54a9.063 9.063 0 0 1 5.144-2.181 9.221 9.221 0 0 1 1.639-.004l13.26-107.426-167.483-55.203a9.2 9.2 0 0 1-2.143 3.322l149.583 161.492zm14.47 3.495c.329.81.545 1.682.628 2.597a9.1 9.1 0 0 1-1.525 5.939l160.072 115.862a9.092 9.092 0 0 1 6.073-3.46l-16.23-178.14a9.163 9.163 0 0 1-8.753-5.11l-140.264 62.312zm-7.055-5.602a9.184 9.184 0 0 1 6.8 5.03l140.257-62.331a9.135 9.135 0 0 1-.626-2.595 9.11 9.11 0 0 1 .328-3.398l-133.51-44.006-13.249 107.3zm-18.305 440.116a9.084 9.084 0 0 1 1.486 4.22c.459 5.017-3.248 9.476-8.293 9.96-5.034.445-9.497-3.27-9.943-8.3-.346-3.79 1.692-7.254 4.875-8.93l-104.418-217.756a9.108 9.108 0 0 1-2.838.72c-5.033.459-9.483-3.257-9.942-8.285a9.012 9.012 0 0 1 .495-3.912l-158.253-63.023a9.144 9.144 0 0 1-7.55 5.405 9.128 9.128 0 0 1-9.943-8.262c-.459-5.028 3.26-9.487 8.28-9.945a9.088 9.088 0 0 1 4.567.762l142.05-290.584a9.137 9.137 0 0 1-4.815-7.252c-.46-5.016 3.235-9.463 8.28-9.921a9.172 9.172 0 0 1 2.602.132l61.242-262.298a9.162 9.162 0 0 1-6.726-7.996c-.446-5.029 3.273-9.475 8.281-9.934 5.033-.458 9.509 3.245 9.967 8.274.006.06.01.122.015.182l315.375-11.355a9.173 9.173 0 0 1 8.33-9.117c5.021-.459 9.484 3.257 9.943 8.286.458 5.016-3.26 9.475-8.281 9.92a9.138 9.138 0 0 1-8.545-4.152L1209.25 596.783a9.165 9.165 0 0 1 1.096 3.577 9.13 9.13 0 0 1-2.143 6.735l154.096 140.123a9.078 9.078 0 0 1 5.728-2.723c5.033-.458 9.484 3.245 9.955 8.274.446 5.028-3.26 9.475-8.294 9.933a9.108 9.108 0 0 1-3.963-.514l-46.048 113.65a9.093 9.093 0 0 1 4.178 6.872c.448 4.921-3.104 9.285-7.962 9.899l16.242 178.138c4.901-.278 9.175 3.375 9.624 8.297.46 5.016-3.248 9.475-8.28 9.946a9.36 9.36 0 0 1-.19.015l5.064 145.042c4.677 0 8.676 3.569 9.121 8.31.447 5.028-3.26 9.487-8.293 9.933a9.127 9.127 0 0 1-8.095-3.532l-190.203 135.624zm-2.947-2.804l189.489-294.195a9.142 9.142 0 0 1-3.592-5.05l-293.936 71.008a9.16 9.16 0 0 1-4.727 9.957l104.417 217.755a9.198 9.198 0 0 1 2.827-.736 9.16 9.16 0 0 1 5.522 1.26zm2.579 2.29l190.2-135.63a9.004 9.004 0 0 1-1.464-4.21c-.484-5.028 3.236-9.487 8.281-9.945l.177-.014-5.064-145.043a9.135 9.135 0 0 1-4.686-1.298l-189.494 294.19a9.224 9.224 0 0 1 2.05 1.95zm-290.547-306.556a9.184 9.184 0 0 1 4.827 7.248 9.062 9.062 0 0 1-.503 3.919l158.248 63.032c1.287-2.915 4.069-5.081 7.447-5.412l-23.949-358.58a9.126 9.126 0 0 1-4.015-.79l-142.055 290.583zm218.369-573.342a9.146 9.146 0 0 1-6.343 3.42 9.194 9.194 0 0 1-2.6-.13l-61.261 262.293a9.18 9.18 0 0 1 4.34 2.62l191.614-165.267a9.11 9.11 0 0 1-1.977-4.898 9.055 9.055 0 0 1 1.552-5.982l-125.325-92.056zm.385-.52l125.324 92.055a9.138 9.138 0 0 1 6.345-3.43 9.156 9.156 0 0 1 8.534 4.164L1386.8 490.677a9.101 9.101 0 0 1-1.1-3.75l-315.374 11.356a9.085 9.085 0 0 1-1.604 5.167zm-65.84 269.195a9.05 9.05 0 0 1 1.973 4.811l175.722-11.672 19.202-155.573a9.134 9.134 0 0 1-5.274-2.82l-191.623 165.254zm1.653 8.304l167.36 55.167 8.602-69.686-175.6 11.659a9.09 9.09 0 0 1-.362 2.86zm355.177-27.064a9.121 9.121 0 0 1 2.163-6.198l-154.102-140.119a9.124 9.124 0 0 1-2.848 1.977l60.543 150.6 94.244-6.26zm5.415 8.06a9.15 9.15 0 0 1-5.371-7.416l-94.036 6.243 45.898 114.172a9.207 9.207 0 0 1 2.294-.508 9.13 9.13 0 0 1 5.196 1.067l46.02-113.558zM1204.33 609.782a9.125 9.125 0 0 1-2.278.5 9.17 9.17 0 0 1-1.629.007L1181.23 765.74l83.572-5.551-60.472-150.407zm106.704 265.395l-45.98-114.36-83.904 5.57-8.635 69.934 133.63 44.048a9.17 9.17 0 0 1 4.889-5.192z"/><path fill="#FCB813" d="M683.734 355.832a9.176 9.176 0 0 1-3.864-2.62l-63.1 89.344 25.183 19.923a9.105 9.105 0 0 1 6.13-3.184 9.11 9.11 0 0 1 3.271.285l32.38-103.748zm4.174.441L721.671 726.5c4.883-.285 9.176 3.382 9.637 8.308.446 5.016-3.26 9.475-8.292 9.933-.351.033-.7.046-1.044.039l-11.027 183.805c4.314.398 7.858 3.815 8.265 8.273.446 5.029-3.26 9.488-8.28 9.946a9.325 9.325 0 0 1-.513.032l.283 186.48c4.546.158 8.383 3.661 8.806 8.304.439 4.809-2.931 9.108-7.627 9.875l29.235 227.3h.02c5.02-.46 9.493 3.244 9.94 8.26.458 5.029-3.248 9.488-8.292 9.946-5.032.446-9.47-3.258-9.94-8.274a9.102 9.102 0 0 1 1.12-5.288l-153.782-92.877a9.14 9.14 0 0 1-6.842 4.113 9.142 9.142 0 0 1-4.819-.883l-38.478 72.605a9.138 9.138 0 0 1 4.56 7.1c.446 5.028-3.26 9.475-8.28 9.933-5.045.458-9.494-3.245-9.953-8.261a9.16 9.16 0 0 1 3.556-8.102l-112.262-157.799a9.052 9.052 0 0 1-4.203 1.467 9.16 9.16 0 0 1-8.1-3.543l-190.173 135.637a9.103 9.103 0 0 1 1.48 4.216c.47 5.016-3.247 9.487-8.28 9.946-5.032.445-9.481-3.27-9.94-8.286a9.151 9.151 0 0 1 4.863-8.942L88.917 1122.011a9.112 9.112 0 0 1-2.818.73c-5.045.458-9.495-3.258-9.966-8.299-.456-4.987 3.218-9.423 8.193-9.912L60.385 745.97c-4.812.161-8.98-3.468-9.41-8.319-.459-5.016 3.247-9.475 8.267-9.92a9.097 9.097 0 0 1 2.613.124l61.242-262.296c-3.586-.962-6.37-4.075-6.717-7.992-.471-5.04 3.247-9.487 8.267-9.945 5.032-.446 9.506 3.257 9.952 8.286.006.058.01.116.015.175l315.33-11.344c-.025-4.687 3.56-8.689 8.319-9.134 5.02-.458 9.481 3.258 9.94 8.286a9.148 9.148 0 0 1-1.614 6.065l91.548 59.249c14.314-1.88 15.105-1 15.71.011L604.5 492.4l-9.307-19.295-23.67 33.515a9.201 9.201 0 0 0-.53-.375l23.879-33.807-32.237-66.831a9.16 9.16 0 0 1-2.848.738c-5.044.446-9.494-3.245-9.952-8.273-.447-5.041 3.247-9.487 8.292-9.946 5.02-.458 9.481 3.245 9.94 8.274a9.102 9.102 0 0 1-1.745 6.248l49.94 39.507 63.188-89.46a9.117 9.117 0 0 1-1.797-4.673c-.446-5.029 3.247-9.475 8.28-9.933 5.019-.459 9.481 3.245 9.952 8.273.437 4.924-3.106 9.289-7.978 9.911zm-.632.058a9.12 9.12 0 0 1-2.944-.312L651.95 459.766c3.278 1.149 5.76 4.124 6.086 7.802.438 4.805-2.926 9.078-7.616 9.849l19.412 148.94 48.67 100.902a9.14 9.14 0 0 1 2.538-.702l-33.764-370.226zm-46.527 116.182a9.064 9.064 0 0 1-.933-3.285 9.108 9.108 0 0 1 1.747-6.257l-25.16-19.897-20.782 29.427 9.448 19.587 35.68-19.575zm5.116 4.503a9.179 9.179 0 0 1-4.809-3.943l-35.708 19.593 21.449 44.468 19.068-60.118zm3.912.484c-.007 0-.014 0-.02.002a9.146 9.146 0 0 1-3.293-.297L627.2 537.97l41.742 86.54-19.165-147.01zm-78.783 28.745l-5.201 7.364.147-.022.042.31-.263-.184.074-.104.19.304-106.732-68.917-.002-.003-.157-.582v.305l-.003.004-.13-.283.047-.023-9.063.326c15.593 6.725 14.093 7.91 12.315 8.562l23.906 72.422 70.733-10.761zm-2.82 16.528c-.44.107-.895.183-1.36.224-4.73.444-8.954-2.819-9.82-7.404l-70.626 10.75 27.701 83.92 75.395 15.462a9.16 9.16 0 0 1 6.095-6.558l-27.384-96.394zm.622-.175l27.372 96.396a9.144 9.144 0 0 1 4.644.066l25.7-81.028-21.732-45.054-30.623 16.802a9.18 9.18 0 0 1 .948 3.297c.386 4.33-2.323 8.245-6.309 9.521zm-.636 231.932l72.192 110.843a9.045 9.045 0 0 1 3.889-1.268c5.032-.446 9.494 3.257 9.94 8.273a9.144 9.144 0 0 1-2.387 7.036l52.04 51.605a9.097 9.097 0 0 1 4.759-2.35l-24.668-189.224-114.793 10.466a9.076 9.076 0 0 1-.972 4.619zm-.349.624a9.183 9.183 0 0 1-6.995 4.366c-5.032.458-9.47-3.257-9.928-8.273a9.112 9.112 0 0 1 .261-3.186l-109.365-33.076a9.134 9.134 0 0 1-7.83 6.164 9.146 9.146 0 0 1-3.977-.517L383.95 834.275a9.142 9.142 0 0 1 3.244 11.8L512.87 914.66a9.16 9.16 0 0 1 16.341 1.173l107.168-39.74a9.209 9.209 0 0 1-.431-2.055c-.3-3.364 1.276-6.493 3.87-8.318L567.81 755.154zm-10.992-13.329L513.574 610.81l-239.16-49.046a9.182 9.182 0 0 1-1.92 3.768l154.07 140.125a9.091 9.091 0 0 1 5.717-2.728c5.033-.458 9.495 3.258 9.94 8.286a9.096 9.096 0 0 1-.252 3.152l109.36 33.1a9.15 9.15 0 0 1 5.49-5.642zm6.219-.043c3.176 1.123 5.596 3.962 6.037 7.486l114.768-10.447-5.312-40.752-73.48-63.953a9.082 9.082 0 0 1-5.853 2.855 9.122 9.122 0 0 1-3.259-.28l-32.901 105.091zm-5.608-.157a9.161 9.161 0 0 1 1.737-.324h.002l.259-.178.1.152a9.104 9.104 0 0 1 2.896.314l32.898-105.09c-3.27-1.149-5.739-4.115-6.064-7.789a9.08 9.08 0 0 1 .08-2.363l-75.04-15.389 43.132 130.667zm155.669-4.84l-28.535 2.601 24.66 189.201a9.264 9.264 0 0 1 1.088-.039l11.015-183.805a9.154 9.154 0 0 1-8.228-7.958zm1.978-6.908l-35.815-31.172 5.22 40.057 28.56-2.6a9.147 9.147 0 0 1 2.035-6.285zm.427-.49a9.17 9.17 0 0 1 2.419-1.848l-47.826-99.149 9.039 69.348 36.368 31.649zm-12.122 202.087l-52.048-51.594a9.08 9.08 0 0 1-3.787 2.144l60.997 251.47a9.17 9.17 0 0 1 1.512-.18l-.271-186.478c-4.556-.15-8.384-3.674-8.807-8.307a9.134 9.134 0 0 1 2.404-7.055zm-2.14 210.722l-78.575-4.945a9.176 9.176 0 0 1-4.663 7.084l120.08 235.273c.75-.349 1.558-.6 2.41-.736l-29.261-227.296h-.006c-5.045.459-9.495-3.257-9.953-8.298a9.175 9.175 0 0 1-.033-1.082zm.04-.632c.37-3.728 3.013-6.899 6.628-7.916l-60.997-251.471c-.33.067-.668.116-1.011.147-4.083.373-7.797-2.008-9.295-5.622l-107.172 39.734c.216.65.36 1.336.426 2.049a9.187 9.187 0 0 1-5.5 9.24l64.717 166.097a9.185 9.185 0 0 1 2.184-.477c5.044-.446 9.494 3.257 9.94 8.273a9.155 9.155 0 0 1-3.945 8.387l11.685 18.444a9.121 9.121 0 0 1 3.792-1.212c5.032-.459 9.482 3.232 9.94 8.26.034.375.045.745.035 1.111l78.573 4.956zm36.116 238.4a9.11 9.11 0 0 1 .114-.064l-120.076-235.275a9.09 9.09 0 0 1-3.029.818 9.21 9.21 0 0 1-2.961-.208l-6.309 22.942 132.26 211.787zm-3.104 2.928a9.178 9.178 0 0 1 2.547-2.581l-131.934-211.298-29.652 107.833c3.418 1.072 6.039 4.105 6.375 7.883a9.107 9.107 0 0 1-1.124 5.293l153.788 92.87zm-213.852-16.197a9.127 9.127 0 0 1 4.206-1.485 9.156 9.156 0 0 1 4.83.888l38.478-72.606a9.094 9.094 0 0 1-4.546-7.091c-.422-4.507 2.51-8.546 6.755-9.666l-57-249.043a9.197 9.197 0 0 1-6.138-.97l-99.46 167.215a9.103 9.103 0 0 1 4.16 6.851 9.133 9.133 0 0 1-3.544 8.108l112.259 157.8zM215.605 905.242L66.065 743.758a9.062 9.062 0 0 1-5.06 2.172l23.967 358.556a9.087 9.087 0 0 1 5.14 1.39l126.559-186.75a9.167 9.167 0 0 1-3.732-6.565 9.162 9.162 0 0 1 2.666-7.319zm13.672 12.11a9.13 9.13 0 0 1-6.386 3.495 9.105 9.105 0 0 1-5.702-1.37L90.646 1106.24a9.142 9.142 0 0 1 3.423 4.932l293.877-71.008a9.1 9.1 0 0 1 1.362-6.948l-160.03-115.864zm-13.203-12.545a9.12 9.12 0 0 1 6.782-2.192l13.26-107.41L68.669 740a9.184 9.184 0 0 1-2.14 3.328l149.546 161.478zm14.47 3.504a9.15 9.15 0 0 1 .665 3.334l154.188 3.92-5.875-64.448a9.18 9.18 0 0 1-8.738-5.135l-140.24 62.329zm-7.067-5.619a9.2 9.2 0 0 1 6.804 5.031L370.524 845.4a9.169 9.169 0 0 1-.627-2.603 9.087 9.087 0 0 1 .325-3.38l-133.5-44.012-13.245 107.288zm6.176 14.141l160.036 115.857a9.11 9.11 0 0 1 6.071-3.45l-10.305-113.042-154.261-3.921a9.097 9.097 0 0 1-1.541 4.556zm-27.408 423.186l189.453-294.196a9.145 9.145 0 0 1-3.602-5.044l-293.879 71.008c.068.33.117.666.149 1.008.346 3.79-1.692 7.262-4.87 8.936l104.398 217.75a9.144 9.144 0 0 1 2.832-.723 9.091 9.091 0 0 1 5.52 1.261zm2.574 2.295l190.173-135.635a9.087 9.087 0 0 1-1.486-4.219c-.458-5.028 3.248-9.487 8.28-9.933.063-.006.126-.01.19-.015l-5.065-145.062a9.115 9.115 0 0 1-4.684-1.287L202.77 1340.36c.777.54 1.469 1.2 2.048 1.955zM132.66 462.41a9.107 9.107 0 0 1-6.354 3.418 9.108 9.108 0 0 1-2.578-.123L62.476 728a9.15 9.15 0 0 1 4.32 2.61L258.38 565.36a9.052 9.052 0 0 1-1.977-4.904 9.11 9.11 0 0 1 1.55-5.98L132.66 462.41zm.38-.515l125.29 92.066a9.14 9.14 0 0 1 6.34-3.451 9.183 9.183 0 0 1 8.54 4.167l177.854-105.56a9.136 9.136 0 0 1-1.096-3.735l-315.331 11.345a9.084 9.084 0 0 1-1.597 5.168zM67.21 731.09a9.093 9.093 0 0 1 1.976 4.808l175.693-11.673 19.206-155.566a9.165 9.165 0 0 1-5.284-2.814L67.21 731.089zm1.66 8.299l167.326 55.171 8.603-69.682-175.57 11.664a9.136 9.136 0 0 1-.359 2.847zm494.35-334.064l32.08 66.51 20.597-29.16-49.973-39.522a9.203 9.203 0 0 1-2.705 2.172zm-139.25 307a9.164 9.164 0 0 1 2.17-6.2L272.059 566.012a9.136 9.136 0 0 1-2.847 1.977l60.544 150.596 94.213-6.26zm5.42 8.07c-2.9-1.294-5.045-4.056-5.38-7.424l-94 6.245 45.89 114.15a9.153 9.153 0 0 1 2.277-.504 9.113 9.113 0 0 1 5.21 1.079l46.002-113.547zm-155.847-165.16a9.14 9.14 0 0 1 .967 2.69l211.011-32.104-23.871-72.32a9.176 9.176 0 0 1-1.74.323 9.107 9.107 0 0 1-8.522-4.162L273.544 555.236zm.997 5.907l238.804 48.972-27.62-83.675-211.114 32.13a9.188 9.188 0 0 1-.07 2.573zm-5.902 7.077a9.218 9.218 0 0 1-3.935.514l-19.19 155.448 83.571-5.553-60.446-150.41zm336.834 65.413l72.932 63.468-9.198-70.557-42.292-87.676-25.484 80.388a9.153 9.153 0 0 1 6.046 7.795 9.1 9.1 0 0 1-2.004 6.582zm-93.495 375.94l7.593-81.184c-4.167-.544-7.546-3.908-7.943-8.245a9.194 9.194 0 0 1-.037-.74l-125.485-3.19 10.297 112.968a9.137 9.137 0 0 1 9.47 7.275l96.48-16.519a9.254 9.254 0 0 1-.044-.395c-.446-5.028 3.26-9.487 8.292-9.945a9.145 9.145 0 0 1 1.377-.026zm-5.495 16.825a9.123 9.123 0 0 1-4.024-5.839l-96.48 16.528c.018.134.034.268.046.404.459 5.016-3.247 9.463-8.28 9.921a9.36 9.36 0 0 1-.19.015l5.053 145.062a9.114 9.114 0 0 1 4.408 1.122l99.467-167.213zm11.515-1.32l67.986 70.578a9.165 9.165 0 0 1 2.498-1.602l-64.707-166.1a9.12 9.12 0 0 1-3.56.496l-7.604 81.18c4.15.533 7.534 3.897 7.93 8.241a9.14 9.14 0 0 1-2.543 7.208zm-.449.434c-.317.286-.655.55-1.012.791l88.14 141.138 6.155-22.374a9.159 9.159 0 0 1-6.39-7.897 9.16 9.16 0 0 1 3.957-8.377l-11.676-18.449a9.102 9.102 0 0 1-3.8 1.22c-5.02.458-9.482-3.257-9.94-8.273a9.122 9.122 0 0 1 2.536-7.186l-67.97-70.593zm-3.762 2.038l57.01 249.042c.293-.055.59-.097.893-.124a9.133 9.133 0 0 1 2.94.206l29.818-108.397-88.442-141.642a9.06 9.06 0 0 1-2.219.915zM386.889 846.634a9.152 9.152 0 0 1-6.721 4.425l5.88 64.522 125.558 3.191a9.07 9.07 0 0 1 .958-3.553l-125.675-68.585zm-11.596-13.025L329.34 719.26l-83.905 5.574-8.633 69.925 133.618 44.057a9.182 9.182 0 0 1 4.874-5.207z"/><path fill="#15A4AA" d="M485.397 526.208l51.491-27.001-7.097-15.509a4.808 4.808 0 0 1-3.67.01 4.794 4.794 0 0 1-1.472-.913l-40.454 41.24a4.884 4.884 0 0 1 1.202 2.173zm.073.343c.152.86.073 1.77-.277 2.644a4.882 4.882 0 0 1-6.329 2.701 4.881 4.881 0 0 1-2.717-6.318c.995-2.434 3.731-3.649 6.172-2.766l73.676-183.232c-2.386-1.046-3.518-3.815-2.546-6.252a4.882 4.882 0 0 1 6.827-2.466l49.725-84.261c-1.932-1.224-2.793-3.692-1.892-5.897 1.005-2.49 3.835-3.704 6.316-2.7.082.032.163.067.243.104l45.022-88.256c-2.11-1.178-3.07-3.768-2.144-6.063.963-2.372 3.598-3.586 5.998-2.804l41.203-114.569-.007-.003a4.836 4.836 0 0 1-2.705-6.305 4.877 4.877 0 0 1 6.328-2.701c2.482 1.003 3.71 3.828 2.705 6.318a4.88 4.88 0 0 1-1.822 2.23l50.299 81.077a4.862 4.862 0 0 1 6.301 1.278l35.791-25.036a4.851 4.851 0 0 1-.435-4.459 4.872 4.872 0 0 1 6.328-2.688 4.857 4.857 0 0 1 2.705 6.306 4.851 4.851 0 0 1-3.632 2.977l14.906 101.74a4.851 4.851 0 0 1 2.355.324 4.846 4.846 0 0 1 2.965 3.628l122.85-18.188a4.817 4.817 0 0 1 .322-2.356 4.877 4.877 0 0 1 6.328-2.701c2.481 1.003 3.697 3.828 2.692 6.318-.75 1.882-2.555 3.028-4.47 3.048L951.23 305.42c.51.03 1.025.14 1.525.34 2.482 1.003 3.698 3.828 2.693 6.318a4.8 4.8 0 0 1-1.18 1.732l59.637 68.025a4.845 4.845 0 0 1 4.864-.726c2.507 1.004 3.723 3.816 2.718 6.306-.993 2.49-3.847 3.704-6.34 2.7a4.824 4.824 0 0 1-1.968-1.45L875.6 491.756a4.83 4.83 0 0 1 .527 4.588 4.882 4.882 0 0 1-6.329 2.7 4.82 4.82 0 0 1-1.197-.69l-92.5 109.234a4.82 4.82 0 0 1 1.247 5.408c-.993 2.49-3.834 3.692-6.316 2.689a4.853 4.853 0 0 1-2.677-6.402l-151.983-70.81c-1.132 2.22-3.789 3.253-6.134 2.304a4.866 4.866 0 0 1-3.063-4.423l-49.126-.823c-.06.294-.147.587-.265.876-1.005 2.49-3.834 3.704-6.315 2.7a4.85 4.85 0 0 1-.371-8.848l-14.07-30.743-51.559 27.036zm-1.519-2.755l40.458-41.233a4.86 4.86 0 0 1-1.005-5.161 4.908 4.908 0 0 1 6.003-2.821l26.88-75.119 1.398-59.476a4.881 4.881 0 0 1-1.38-.282L482.64 522.94c.492.218.932.51 1.312.855zm48.846-44.56a4.86 4.86 0 0 1-.348 1.783 4.891 4.891 0 0 1-2.345 2.537l7.09 15.49 16.96-8.893.272-11.556-21.629.64zm-1.329-3.363a4.88 4.88 0 0 1 1.319 3.029l21.646-.64.617-26.214-23.582 23.825zm-1.736-1.177l.013.005a4.864 4.864 0 0 1 1.485.937l23.832-24.087 1.199-51.008-26.529 74.153zm44.241 5.447l-19.48 10.214-.923 39.391c.51.03 1.023.14 1.523.34a4.864 4.864 0 0 1 3.013 5.097l49.075.832a4.846 4.846 0 0 1 .34-1.559 4.882 4.882 0 0 1 1.95-2.31l-28.986-50.127a4.864 4.864 0 0 1-6.512-1.879zm6.81 1.707l28.978 50.131a4.88 4.88 0 0 1 2.86-.537l6.223-40.019-36.082-11.997-.045.116a4.844 4.844 0 0 1-1.934 2.306zm-1.474-8.845a4.864 4.864 0 0 1 3.56 6.1l36.028 11.979 7.213-46.385-31.937-25.524a4.884 4.884 0 0 1-4.476 1.635l-10.388 52.195zm-.322-.064l10.388-52.195a4.883 4.883 0 0 1-2.197-1.158L555.4 451.693l-.622 26.558 18.553-.548a4.822 4.822 0 0 1 .353-1.777c.858-2.164 3.1-3.346 5.303-2.985zm-5.647 5.097l-18.57.549-.267 11.383 19.312-10.127a4.856 4.856 0 0 1-.475-1.805zm62.107-114.629l-7.34-69.854a4.875 4.875 0 0 1-2.141-.335 4.865 4.865 0 0 1-2.705-6.319 4.812 4.812 0 0 1 2.843-2.753l-12.136-36.975a4.847 4.847 0 0 1-2.824-.04l-34.147 95.448 56.854 22.794a4.893 4.893 0 0 1 1.596-1.966zm.317-.211a4.856 4.856 0 0 1 4.362-.37c2.481 1.004 3.697 3.828 2.692 6.319a4.876 4.876 0 0 1-.894 1.436l43.75 42.06a4.904 4.904 0 0 1 5.21-1.023 4.865 4.865 0 0 1 1.748 1.204l49.297-42.62a4.85 4.85 0 0 1-.32-4.253 4.9 4.9 0 0 1 1.65-2.11l-42.879-62.795a4.87 4.87 0 0 1-4.407.406 4.881 4.881 0 0 1-3.041-4.902l-60.343-7.101a4.867 4.867 0 0 1-4.135 4.07l7.31 69.679zm1.969 8.967l-11.257 72.396 101.32 80.966a4.886 4.886 0 0 1 1.824-1.312l-38.996-103.489a4.902 4.902 0 0 1-3.388-.087 4.87 4.87 0 0 1-2.692-6.318c.22-.544.527-1.027.899-1.438l-43.756-42.054a4.865 4.865 0 0 1-3.954 1.336zm-2.957-1.485a4.858 4.858 0 0 1-1.05-4.996l-56.841-22.789-7.353 20.553 19.3 47.996a4.829 4.829 0 0 1 3.461.062 4.842 4.842 0 0 1 1.465.915l41.018-41.74zm2.62 1.432a4.837 4.837 0 0 1-.901-.268l-.16.012-.009-.083a4.873 4.873 0 0 1-1.305-.853l-41.013 41.746a4.853 4.853 0 0 1 .99 5.158c-.162.398-.37.762-.616 1.09l31.788 25.402 11.227-72.204zm-74.853-35.326l14.142 5.67 34.148-95.434a5.482 5.482 0 0 1-.54-.25l-49.72 84.263a4.851 4.851 0 0 1 1.97 5.75zm-2.61 2.79l9.409 23.4 7.23-20.206-14.154-5.675a4.85 4.85 0 0 1-2.485 2.482zm-.31.125a4.888 4.888 0 0 1-1.603.292l-1.37 58.455 12.52-34.993-9.548-23.754zm54.666-92.633l12.136 36.975a4.882 4.882 0 0 1 2.322-.094l32.01-133.659a4.872 4.872 0 0 1-.762-.282l-45.025 88.253a4.842 4.842 0 0 1 2.16 6.06 4.846 4.846 0 0 1-2.84 2.747zm52.03-99.138l35.999 21.334a4.862 4.862 0 0 1 3.925-2.225l.128-140.275a4.85 4.85 0 0 1-1.314-.235l-41.203 114.569c.003 0 .006.002.008.003 2.494.991 3.71 3.828 2.705 6.306a4.933 4.933 0 0 1-.248.523zm-.173.292a4.881 4.881 0 0 1-5.053 2.149L629.07 284.026a4.881 4.881 0 0 1 3.559 5.087l60.344 7.09a4.82 4.82 0 0 1 .295-1.07 4.883 4.883 0 0 1 4.848-3.037l9.6-94.184a4.86 4.86 0 0 1-1.17-.306c-2.482-1.004-3.71-3.828-2.705-6.306a4.894 4.894 0 0 1 3.9-3.017l-1.06-11.541a4.836 4.836 0 0 1-2.092-.344 4.849 4.849 0 0 1-2.45-6.833l-35.993-21.343zm40.645-121.46a4.827 4.827 0 0 1-.085.003l-.128 140.275a4.83 4.83 0 0 1 1.634.351c.5.199.948.47 1.337.799l8.552-9.331-11.31-132.097zm2.166-.63a4.872 4.872 0 0 1-1.832.602l11.277 131.796 40.154-43.816a4.849 4.849 0 0 1-1.11-5.284 4.882 4.882 0 0 1 1.815-2.222l-50.304-81.075zm97.298 59.33a4.848 4.848 0 0 1-4.419-1.904l-35.79 25.036a4.831 4.831 0 0 1 .434 4.454 4.859 4.859 0 0 1-5.544 2.932l-33.327 131.55a4.858 4.858 0 0 1 2.663 1.937l87.562-55.05a4.853 4.853 0 0 1-.31-4.243 4.884 4.884 0 0 1 3.661-2.977l-14.93-101.736zm32.535 291.855l31.669 112.5a4.86 4.86 0 0 1 2.93.194l75.472-175.35a4.866 4.866 0 0 1-2.1-1.905L841.65 370.5a4.876 4.876 0 0 1 .174 4.005 4.852 4.852 0 0 1-3.034 2.811zm-3.535-9.023a4.897 4.897 0 0 1 3.877-.106 4.8 4.8 0 0 1 2.355 2.017l105.115-57.736a4.852 4.852 0 0 1-.438-3.171l-156.27-37.415a4.836 4.836 0 0 1-2.332 2.953l47.693 93.458zm3.214 9.114a4.848 4.848 0 0 1-3.753-.6l-32.282 47.59 65.889 66.561a4.895 4.895 0 0 1 1.822-1.053L838.47 377.408zm-6.01-5.151a4.796 4.796 0 0 1 .499-1.735l-72.03-39.102-12.825 31.9a4.863 4.863 0 0 1 2.898 4.532l81.457 4.405zm1.992 4.373a4.88 4.88 0 0 1-2.012-4.027l-81.455-4.416a4.837 4.837 0 0 1-1.312 2.91l52.531 53.069 32.248-47.536zm.503-8.183l-47.689-93.46a4.872 4.872 0 0 1-3.718.167l-22.492 55.95 72.065 39.121a4.853 4.853 0 0 1 1.834-1.778zm115.44-193.496L789.49 268.305c.522.977.709 2.124.48 3.253l156.27 37.418c.047-.173.105-.345.173-.516a4.898 4.898 0 0 1 4.48-3.047l3.31-128.199a4.892 4.892 0 0 1-1.51-.338 4.854 4.854 0 0 1-2.3-1.925zm-.665-1.703l-122.85 18.188a4.824 4.824 0 0 1-.322 2.357c-.993 2.49-3.847 3.692-6.329 2.688a4.942 4.942 0 0 1-.077-.031l-32.733 69.822a4.848 4.848 0 0 1 1.896 1.73l160.912-93.34a4.881 4.881 0 0 1-.497-1.414zm63.247 215.15a4.824 4.824 0 0 1-.523-4.6 4.846 4.846 0 0 1 1.186-1.733l-59.618-68.04a4.876 4.876 0 0 1-4.843.772L873.685 490.14c.686.324 1.265.79 1.715 1.35l137.576-103.09zm-242.17 218.374a4.836 4.836 0 0 1 3.85-.083 4.87 4.87 0 0 1 1.184.678l92.506-109.231a4.887 4.887 0 0 1-1.414-2.289L736.241 527.71c.188.905.12 1.875-.248 2.799a4.875 4.875 0 0 1-2.193 2.453l37.007 73.81zm-.297.15l-37.007-73.81a4.826 4.826 0 0 1-3.837.097 4.869 4.869 0 0 1-3.034-4.035l-109.726 6.954a4.818 4.818 0 0 1-.386 2.034l151.984 70.81a4.881 4.881 0 0 1 2.006-2.05zm96.344-111.399a4.844 4.844 0 0 1 .222-2.748l-85.973-36.927-46.755 68.926a4.843 4.843 0 0 1 1.816 2.614l130.69-31.865zm1.226-4.324l-65.837-66.516-20.947 30.88 85.915 36.902c.227-.477.522-.901.869-1.266zM553.223 529.74l.922-39.201-16.81 8.815 14.077 30.76a4.891 4.891 0 0 1 1.811-.374zm140.238-111.538a4.849 4.849 0 0 1-2.524 2.405l38.991 103.49a4.866 4.866 0 0 1 1.827-.247l7.817-85.842-46.111-19.806zm-.605-5.12c1.058 1.316 1.405 3.14.74 4.81l46.008 19.762 5.926-65.081a4.89 4.89 0 0 1-1.216-.317 4.822 4.822 0 0 1-2.2-1.76l-49.258 42.587zM726.61 528.84a4.802 4.802 0 0 1 .199-1.518l-107.637-35.789-6.214 39.962a4.869 4.869 0 0 1 3.926 4.298l109.726-6.953zm.972-3.047l-101.166-80.85-7.19 46.249L726.917 527a4.931 4.931 0 0 1 .664-1.206zm4.509-1.913a4.902 4.902 0 0 1 1.985.71l46.723-68.874-40.902-17.568-7.806 85.732zM588.512 411.573l-19.152-47.646-12.736 35.602-1.212 51.668 31.517-31.855a4.858 4.858 0 0 1-.976-5.135 4.932 4.932 0 0 1 2.56-2.634zm135.28-155.195l-23.262 36.556c1.838 1.26 2.64 3.663 1.77 5.817a4.997 4.997 0 0 1-.166.366l58.625 31.826 22.483-55.91c-2.224-.968-3.366-3.432-2.727-5.74l-49.668-15.49a4.872 4.872 0 0 1-6.404 2.891 4.876 4.876 0 0 1-.65-.316zm6.661-6.622a4.861 4.861 0 0 1 .494 3.722l49.667 15.5a4.868 4.868 0 0 1 6.502-2.848l32.723-69.824a4.805 4.805 0 0 1-1.819-1.591l-87.567 55.041zm-5.766-2.154l-15.082-49.813a4.89 4.89 0 0 1-1.566.154l-9.6 94.186a4.86 4.86 0 0 1 1.809.625l23.257-36.557c-1.844-1.253-2.637-3.666-1.767-5.809a4.885 4.885 0 0 1 2.95-2.786zm.323-.098c.22-.058.443-.101.67-.129l-7.54-88.049-8.332 9.099a4.833 4.833 0 0 1 1.109 5.272 4.874 4.874 0 0 1-3.899 3.013l1.066 11.54a4.822 4.822 0 0 1 2.085.337c2.481 1.003 3.71 3.84 2.705 6.318a4.832 4.832 0 0 1-2.946 2.786l15.082 49.813zm2.275-.055l33.33-131.55c-.16-.046-.318-.1-.476-.163a4.775 4.775 0 0 1-1.341-.803l-40.356 44.064 7.56 88.35c.424-.023.855.01 1.283.102zm16.247 116.206a4.837 4.837 0 0 1 4.258-.461l12.842-31.935-58.661-31.845a4.872 4.872 0 0 1-1.312 1.442l42.873 62.799zm2.333 8.949l-5.936 65.19 41.063 17.638 21.018-30.982-52.577-53.119a4.895 4.895 0 0 1-3.568 1.273z"/><path fill="#424242" d="M458.102 1049.67a3.202 3.202 0 0 1-1.198-1.143l-27.23 27.554 7.625 8.434a3.216 3.216 0 0 1 2.339-.761c.395.03.769.13 1.11.286l17.354-34.37zm1.442.392l-9.81 131.377a3.225 3.225 0 0 1 2.874 3.449 3.223 3.223 0 0 1-3.832 2.94l-14.548 63.603a3.233 3.233 0 0 1 2.395 3.348c-.149 1.81-1.697 3.149-3.48 3a3.197 3.197 0 0 1-.164-.014l-10.774 65.199a3.24 3.24 0 0 1 2.584 3.4 3.234 3.234 0 0 1-3.468 3 3.24 3.24 0 0 1-2.985-3.483 3.11 3.11 0 0 1 .044-.365l-27.12-6.317a3.23 3.23 0 0 1-4.38 2.135l-20.306 43.885a3.232 3.232 0 0 1 1.765 3.132 3.209 3.209 0 0 1-3.468 2.975 3.154 3.154 0 0 1-1.631-.572l-17.65 23.132a3.237 3.237 0 0 1 1.166 2.745 3.227 3.227 0 0 1-3.468 2.988c-1.783-.136-3.108-1.686-2.997-3.483a3.292 3.292 0 0 1 1.729-2.617l-29.988-61.684c-.467.205-.99.3-1.534.253a3.19 3.19 0 0 1-2.631-1.691l-74.25 36.308a3.2 3.2 0 0 1 .273 1.56 3.208 3.208 0 0 1-3.468 2.976c-1.796-.112-3.122-1.674-2.985-3.459a3.21 3.21 0 0 1 2.203-2.835l-23.717-82.188c-.328.08-.673.11-1.028.08-1.796-.11-3.121-1.685-2.997-3.47a3.25 3.25 0 0 1 .4-1.334l-51.531-31.248a3.201 3.201 0 0 1-2.944 1.453 3.247 3.247 0 0 1-2.985-3.484c.124-1.785 1.684-3.112 3.468-2.975.57.04 1.096.228 1.543.525l66.487-93.266a3.24 3.24 0 0 1-1.261-2.807 3.259 3.259 0 0 1 3.468-3c.314.026.614.095.895.202l36.659-88.099a3.213 3.213 0 0 1-1.87-3.182 3.211 3.211 0 0 1 3.469-2.988 3.252 3.252 0 0 1 2.979 3.538l110.68 14.414a3.2 3.2 0 0 1 3.435-2.699 3.223 3.223 0 0 1 2.827 2.19l31.324-9.38a3.283 3.283 0 0 1-.01-.609 3.234 3.234 0 0 1 3.468-2.987 3.25 3.25 0 0 1 2.985 3.47 3.233 3.233 0 0 1-.978 2.09l15.12 16.725 27.266-27.59a3.252 3.252 0 0 1-.351-1.744c.124-1.786 1.672-3.112 3.468-2.988a3.244 3.244 0 0 1 2.985 3.471 3.235 3.235 0 0 1-3.35 2.995zm-1.234-.288l-17.355 34.371a3.231 3.231 0 0 1 1.668 3.08 3.234 3.234 0 0 1-3.242 2.997l-1.903 53.176 11.106 38.114a3.19 3.19 0 0 1 .926-.09l9.812-131.376a3.22 3.22 0 0 1-1.012-.272zm-22.006 38.17a3.225 3.225 0 0 1-.134-1.203 3.236 3.236 0 0 1 .978-2.09l-7.623-8.42-8.972 9.08 2.156 7.398 13.595-4.765zm1.518 1.87a3.246 3.246 0 0 1-1.44-1.65l-13.609 4.766 4.892 16.79 10.157-19.907zm1.336.399h-.003c-.4-.03-.777-.132-1.12-.292l-10.273 20.13 9.521 32.677 1.875-52.515zm-29.152 5.459l10.297-10.42-7.36-25.246a3.216 3.216 0 0 1-1.027.085 3.213 3.213 0 0 1-2.94-2.63l-31.293 9.37a3.24 3.24 0 0 1-.676 2.912l28.485 26.039a3.232 3.232 0 0 1 2.559-.963c.76.059 1.437.373 1.955.853zm-4.667.278l-28.486-26.04a3.225 3.225 0 0 1-1.7.91l4.12 26.712 25.305.362.005-.087c.05-.714.327-1.354.756-1.857zm2.728 5.325c-.164.014-.33.015-.5.003-1.675-.116-2.946-1.502-2.99-3.149l-25.267-.361 4.771 30.926 25.406 9.799a3.236 3.236 0 0 1 2.499-1.93l-3.919-35.288zm.213-.024l3.938 35.286a3.258 3.258 0 0 1 1.615.295l13.686-26.825-4.957-17.004-11.659 4.083c.119.375.171.777.145 1.192a3.265 3.265 0 0 1-2.768 2.973zm2.548-4.377l11.67-4.09-2.125-7.291-10.212 10.333c.286.302.513.657.667 1.048zm-16.286 85.402l18.726 42.947a3.261 3.261 0 0 1 1.435-.222 3.244 3.244 0 0 1 2.985 3.471 3.234 3.234 0 0 1-1.244 2.32l15.146 21.06a3.184 3.184 0 0 1 1.816-.53l2.413-67.572-40.667-3.045a3.219 3.219 0 0 1-.61 1.57zm-.16.2a3.223 3.223 0 0 1-2.689 1.102c-1.783-.124-3.108-1.686-2.985-3.46.03-.392.128-.763.28-1.1l-36.233-17.931a3.187 3.187 0 0 1-3.08 1.68 3.187 3.187 0 0 1-1.362-.399l-22.69 37.026a3.198 3.198 0 0 1 1.049 2.649 3.19 3.19 0 0 1-.603 1.666l39.846 31.297a3.255 3.255 0 0 1 2.718-1.143 3.263 3.263 0 0 1 2.913 2.512l39.722-7.644a3.226 3.226 0 0 1 1.802-3.42l-18.688-42.836zm-3.051-5.307l-7.457-48.301-80.594-31.08c-.199.47-.504.88-.884 1.202l45.594 57.943a3.223 3.223 0 0 1 2.155-.613 3.243 3.243 0 0 1 2.712 4.559l36.227 17.943a3.244 3.244 0 0 1 2.247-1.653zm2.167.348a3.258 3.258 0 0 1 1.67 2.965l40.659 3.044.519-14.547-21.918-26.632a3.189 3.189 0 0 1-2.203.638 3.214 3.214 0 0 1-1.114-.282l-17.613 34.814zm-1.944-.383a3.292 3.292 0 0 1 .628-.015l.095-.039.022.05c.347.04.677.136.982.277l17.617-34.811a3.22 3.22 0 0 1-1.658-3.07c.02-.284.076-.557.163-.814l-25.28-9.749 7.431 48.171zm54.595 7.39l-10.115-.758-2.417 67.566h.009c.129.01.255.026.38.05l14.547-63.605a3.253 3.253 0 0 1-2.404-3.253zm1.092-2.306l-10.687-12.986-.512 14.31 10.123.758c.09-.835.49-1.566 1.076-2.082zm.17-.14a3.2 3.2 0 0 1 .97-.508l-10.927-37.483-.888 24.805 10.845 13.186zm-16.007 69.907l-15.14-21.063a3.213 3.213 0 0 1-1.457.53l6.63 91.446a3.253 3.253 0 0 1 .534.026l10.784-65.193c-1.584-.297-2.712-1.77-2.597-3.423a3.226 3.226 0 0 1 1.246-2.323zm-10.19 70.928l-6.642-91.445a3.228 3.228 0 0 1-3.261-2.514l-39.724 7.632c.04.246.05.5.03.76a3.226 3.226 0 0 1-2.454 2.896l12.909 61.827c.255-.043.52-.055.79-.035a3.232 3.232 0 0 1 2.985 3.459 3.252 3.252 0 0 1-1.872 2.7l3.002 7.13a3.244 3.244 0 0 1 4.335 3.653l27.12 6.306a3.212 3.212 0 0 1 2.781-2.37zm-78.99 70.506a3.158 3.158 0 0 1 1.547-.259 3.19 3.19 0 0 1 1.631.582l17.661-23.123a3.24 3.24 0 0 1 1.743-5.732l-5.375-90.357a3.238 3.238 0 0 1-2.088-.7l-44.435 52.648a3.25 3.25 0 0 1 1.058 2.635 3.264 3.264 0 0 1-1.724 2.62l29.982 61.686zm-79.47-179.034l-42.761-65.15a3.22 3.22 0 0 1-1.893.458l-12.54 126.709c.66.09 1.25.376 1.718.795l55.035-57.897a3.26 3.26 0 0 1-.919-2.51c.077-1.011.6-1.87 1.36-2.405zm4.053 5.04a3.208 3.208 0 0 1-2.416.836 3.203 3.203 0 0 1-1.906-.798l-55.042 57.892c.495.509.823 1.177.907 1.91l106.67-7.679a3.235 3.235 0 0 1 .89-2.355l-49.103-49.806zm-3.86-5.165a3.26 3.26 0 0 1 1.915-.458c.197.015.388.047.573.096l10.89-36.773-55.205-29.04a3.237 3.237 0 0 1-.94 1.027l42.766 65.148zm4.833 2.069a3.214 3.214 0 0 1 .038 1.208l53.577 10.357 1.703-22.874a3.237 3.237 0 0 1-2.75-2.294l-52.568 13.603zm-2.127-2.366a3.258 3.258 0 0 1 2.073 2.156l52.567-13.603a3.268 3.268 0 0 1-.074-.956 3.25 3.25 0 0 1 .317-1.177l-44.007-23.15-10.876 36.73zm1.322 5.297l49.091 49.817a3.216 3.216 0 0 1 2.324-.85l2.987-40.1-53.604-10.356a3.206 3.206 0 0 1-.798 1.489zm-34.235 146.29l83.255-91.769a3.244 3.244 0 0 1-.959-1.971l-106.668 7.692c.005.12.003.24-.005.362a3.256 3.256 0 0 1-2.229 2.834l23.73 82.184a3.25 3.25 0 0 1 1.04-.088c.7.06 1.333.334 1.836.756zm.774.947l74.253-36.305a3.238 3.238 0 0 1-.267-1.562c.137-1.786 1.697-3.137 3.468-2.988l.079.007 6.677-51.001a3.169 3.169 0 0 1-1.56-.714l-83.249 91.774c.238.23.44.497.599.789zm-83.48-124.059a3.226 3.226 0 0 1 1.257 2.801c-.037.49-.18.946-.403 1.347l51.532 31.249a3.232 3.232 0 0 1 2.93-1.455l12.529-126.708a3.205 3.205 0 0 1-1.365-.506l-66.48 93.272zm109.577-187.632a3.249 3.249 0 0 1-2.398.819 3.265 3.265 0 0 1-.9-.199l-36.661 88.1a3.29 3.29 0 0 1 1.351 1.157l76.483-46.578a3.23 3.23 0 0 1 .484-3.84l-38.359-39.46zm.182-.175l38.33 39.487c.636-.578 1.5-.9 2.432-.823a3.209 3.209 0 0 1 2.724 1.932l68.207-26.511a3.174 3.174 0 0 1-.16-1.375l-110.68-14.414a3.221 3.221 0 0 1-.853 1.704zm-38.667 90.251a3.22 3.22 0 0 1 .417 1.78l61.977 6.166 15.766-53.24a3.223 3.223 0 0 1-1.684-1.294l-76.476 46.588zm.105 2.992l55.158 29.033 7.064-23.854-61.932-6.155a3.194 3.194 0 0 1-.29.976zm191.93-87.93l7.322 25.126 8.895-9.002-15.14-16.724c-.315.265-.68.47-1.076.6zm-66.465 99.17a3.205 3.205 0 0 1 1.114-2.04l-45.606-57.932a3.191 3.191 0 0 1-1.094.514l12.345 56.15 33.241 3.307zm1.421 3.136a3.222 3.222 0 0 1-1.442-2.913l-33.168-3.297 9.36 42.574a3.27 3.27 0 0 1 2.584.636l22.666-37zm-44.75-66.796c.107.314.167.649.171.995l75.499 1.08-4.118-26.674a3.2 3.2 0 0 1-.612.01 3.221 3.221 0 0 1-2.739-1.936l-68.202 26.525zm-.002 2.11l80.468 31.034-4.76-30.834-75.54-1.08a3.227 3.227 0 0 1-.167.88zm-2.478 2.14c-.264.047-.537.06-.815.037a3.243 3.243 0 0 1-.572-.091l-15.752 53.2 29.467 2.932-12.328-56.078zm113.724 42.493l21.747 26.442.9-25.221-9.643-33.08-13.574 26.6a3.231 3.231 0 0 1 1.652 3.071 3.229 3.229 0 0 1-1.082 2.188zm-54.539 125.926l7.382-27.925c-1.423-.42-2.396-1.794-2.29-3.335.007-.092.017-.182.03-.272l-43.6-8.423-2.993 40.076a3.235 3.235 0 0 1 2.884 3.1l34.625-.146c.001-.049.004-.098.007-.147.149-1.797 1.697-3.136 3.48-3 .163.013.321.037.475.072zm-2.89 5.57a3.251 3.251 0 0 1-1.07-2.285l-34.627.147a3.205 3.205 0 0 1-3.538 3.12l-6.69 51.002a3.234 3.234 0 0 1 1.477.654l44.447-52.638zm4.095.205l19.603 28.627c.292-.185.616-.324.96-.408l-12.899-61.83a3.22 3.22 0 0 1-.779.035 3.23 3.23 0 0 1-.482-.067l-7.397 27.924a3.25 3.25 0 0 1 2.3 3.356 3.196 3.196 0 0 1-1.306 2.363zm-1.61.617l5.374 90.358a3.248 3.248 0 0 1 1.336.255l20.296-43.89a3.207 3.207 0 0 1-1.763-3.128 3.208 3.208 0 0 1 1.868-2.704l-3.01-7.125a3.163 3.163 0 0 1-1.376.2c-1.784-.124-3.121-1.674-2.997-3.471a3.188 3.188 0 0 1 1.308-2.364l-19.607-28.624c-.423.269-.91.442-1.43.493zm-33.745-70.62a3.244 3.244 0 0 1-2.602 1.141l-1.71 22.9 43.627 8.433c.099-.44.286-.841.541-1.189l-39.856-31.285zm-3.28-5.231l-9.376-42.648-29.585-2.94-7.088 23.939 44.042 23.18a3.241 3.241 0 0 1 2.006-1.531z"/><path fill="#61C1EE" d="M599.795 343.962l-27.218 27.532 7.624 8.424a3.23 3.23 0 0 1 3.45-.459l17.34-34.36a3.231 3.231 0 0 1-1.196-1.137zm-.113-.199a3.24 3.24 0 0 1 3.114-4.726 3.218 3.218 0 0 1 2.985 3.47c-.134 1.749-1.624 3.07-3.352 2.992l-9.797 131.282a3.234 3.234 0 0 1 2.874 3.458 3.226 3.226 0 0 1-3.85 2.934l-14.545 63.556a3.248 3.248 0 0 1 2.393 3.377 3.222 3.222 0 0 1-3.638 2.967l-10.772 65.15a3.256 3.256 0 0 1 2.586 3.426 3.233 3.233 0 0 1-3.236 2.983l-3.052 81.104h.002a3.235 3.235 0 0 1 2.997 3.47c-.149 1.784-1.697 3.122-3.468 2.985a3.22 3.22 0 0 1-2.985-3.469c.047-.678.3-1.292.693-1.784L510.39 665.54a3.226 3.226 0 0 1-2.626 1.036 3.22 3.22 0 0 1-1.629-.588l-17.66 23.118a3.255 3.255 0 0 1 1.173 2.768c-.136 1.759-1.684 3.097-3.468 2.973a3.238 3.238 0 0 1-2.985-3.481 3.258 3.258 0 0 1 1.716-2.616l-29.987-61.648c-.468.206-.99.303-1.533.261a3.213 3.213 0 0 1-2.627-1.71l-74.254 36.301c.212.472.314 1.002.271 1.552a3.225 3.225 0 0 1-3.468 2.986 3.22 3.22 0 0 1-2.985-3.469 3.221 3.221 0 0 1 2.218-2.836l-23.742-82.135c-.325.08-.667.112-1.017.085-1.784-.124-3.121-1.685-2.997-3.47a3.24 3.24 0 0 1 .403-1.34L293.67 542.09a3.207 3.207 0 0 1-2.967 1.455c-1.77-.124-3.108-1.685-2.972-3.47a3.233 3.233 0 0 1 5.007-2.457l66.494-93.207a3.221 3.221 0 0 1-1.253-2.812 3.219 3.219 0 0 1 3.468-2.986 3.2 3.2 0 0 1 .885.196l36.663-88.039a3.266 3.266 0 0 1-1.894-3.188c.149-1.784 1.71-3.122 3.48-2.986a3.234 3.234 0 0 1 2.98 3.53l110.68 14.404c.268-1.633 1.763-2.818 3.434-2.701a3.245 3.245 0 0 1 2.825 2.2l31.325-9.364a3.238 3.238 0 0 1 3.466-3.598 3.233 3.233 0 0 1 2.973 3.47 3.203 3.203 0 0 1-.963 2.077l15.122 16.709 27.259-27.56zm1.515 1.44l-17.357 34.353a3.235 3.235 0 0 1-1.555 6.074l-1.903 53.172 11.09 38.057c.3-.077.614-.11.937-.096l9.798-131.281a3.285 3.285 0 0 1-1.01-.28zm-22.001 38.15a3.22 3.22 0 0 1-.135-1.202 3.24 3.24 0 0 1 .983-2.091l-7.617-8.414-8.972 9.075 2.155 7.392 13.586-4.76zm1.525 1.872a3.244 3.244 0 0 1-1.452-1.66l-13.597 4.763 4.892 16.787 10.157-19.89zm1.329.395h-.004a3.246 3.246 0 0 1-1.127-.294l-10.263 20.103 9.516 32.653 1.878-52.462zm-29.156 5.45l10.293-10.408-7.356-25.224c-.326.081-.67.112-1.023.085a3.227 3.227 0 0 1-2.948-2.625l-31.293 9.356a3.24 3.24 0 0 1-.668 2.908l28.495 26.022a3.207 3.207 0 0 1 2.544-.961c.762.058 1.439.37 1.956.846zm-4.658.288l-28.49-26.027a3.225 3.225 0 0 1-1.706.92l4.12 26.684 25.304.361.006-.087a3.273 3.273 0 0 1 .766-1.85zm2.713 5.321a3.26 3.26 0 0 1-.482-.001 3.22 3.22 0 0 1-3.006-3.159l-25.267-.36 4.775 30.929 25.402 9.795a3.289 3.289 0 0 1 2.505-1.942l-3.927-35.262zm.223-.024l3.928 35.26a3.226 3.226 0 0 1 1.628.296l13.68-26.79-4.962-17.014-11.656 4.083c.116.378.165.783.133 1.202a3.203 3.203 0 0 1-2.75 2.963zm2.545-4.376l11.667-4.087-2.122-7.275-10.2 10.318c.281.301.505.655.655 1.044zm-16.286 85.348l18.73 42.92a3.228 3.228 0 0 1 1.435-.214 3.235 3.235 0 0 1 1.736 5.787l15.152 21.046a3.235 3.235 0 0 1 1.803-.55l2.417-67.518-40.656-3.034a3.227 3.227 0 0 1-.617 1.563zm-.154.192a3.224 3.224 0 0 1-2.686 1.11c-1.796-.124-3.12-1.673-2.997-3.469.032-.384.13-.749.282-1.083l-36.227-17.922a3.222 3.222 0 0 1-3.088 1.688 3.253 3.253 0 0 1-1.352-.407l-22.7 37a3.221 3.221 0 0 1 1.06 2.647 3.211 3.211 0 0 1-.609 1.674l39.852 31.274a3.255 3.255 0 0 1 2.719-1.153 3.26 3.26 0 0 1 2.91 2.516l39.715-7.638a3.24 3.24 0 0 1-.028-.737 3.21 3.21 0 0 1 1.826-2.682l-18.677-42.818zm-3.061-5.297l-7.46-48.285-80.57-31.055a3.204 3.204 0 0 1-.891 1.21l45.587 57.915c.6-.443 1.352-.68 2.15-.619a3.227 3.227 0 0 1 2.985 3.47 3.17 3.17 0 0 1-.265 1.088l36.23 17.919a3.264 3.264 0 0 1 2.234-1.643zm2.168.345a3.253 3.253 0 0 1 1.68 2.974l40.648 3.034.52-14.542-21.914-26.612a3.193 3.193 0 0 1-2.206.646 3.202 3.202 0 0 1-1.114-.284l-17.614 34.784zm-1.943-.38c.202-.024.41-.03.62-.013l.101-.045.025.057c.353.04.687.136.994.278l17.61-34.785a3.247 3.247 0 0 1-1.677-3.07c.024-.289.086-.567.18-.83l-25.287-9.745 7.434 48.153zm54.605 7.383l-10.107-.754-2.417 67.51c.125.01.247.027.367.05l14.556-63.552a3.233 3.233 0 0 1-2.399-3.254zm1.086-2.3l-10.674-12.963-.511 14.285 10.115.755a3.206 3.206 0 0 1 1.07-2.078zm.171-.142c.286-.22.61-.393.958-.508l-10.905-37.392-.886 24.737 10.833 13.163zm-16.012 69.879l-15.142-21.055c-.425.284-.92.469-1.449.525l6.629 91.385a3.318 3.318 0 0 1 .53.022l10.784-65.148a3.243 3.243 0 0 1-2.592-3.413 3.246 3.246 0 0 1 1.24-2.316zm-13.016 73.477l-27.13-6.315a3.243 3.243 0 0 1-2.034 2.205l28.183 89.167a3.21 3.21 0 0 1 .875-.114l3.04-81.105c-1.782-.125-3.105-1.673-2.981-3.469.008-.125.024-.249.047-.37zm.053-.234a3.238 3.238 0 0 1 2.778-2.37l-6.64-91.386a3.243 3.243 0 0 1-3.268-2.516l-39.715 7.638a3.235 3.235 0 0 1-2.426 3.647l12.898 61.788c.257-.044.523-.057.794-.036a3.214 3.214 0 0 1 2.985 3.456 3.256 3.256 0 0 1-1.86 2.7l2.999 7.123a3.242 3.242 0 0 1 4.325 3.649l27.13 6.307zm-1.296 85.375l.049-.017-28.194-89.163a3.27 3.27 0 0 1-2.11-.139l-3.543 7.65 33.798 81.67zm-1.253.84c.293-.318.65-.577 1.048-.756l-33.721-81.475-16.642 35.924a3.255 3.255 0 0 1 1.78 3.133 3.268 3.268 0 0 1-.71 1.783l48.245 41.392zm-73.677-18.108a3.222 3.222 0 0 1 3.199.315l17.652-23.123a3.253 3.253 0 0 1-1.174-2.742 3.24 3.24 0 0 1 2.913-2.978l-5.375-90.311a3.224 3.224 0 0 1-.31-.01 3.2 3.2 0 0 1-1.764-.678l-44.45 52.608a3.245 3.245 0 0 1-.648 5.256l29.957 61.663zM405.64 509.728l-42.764-65.116a3.202 3.202 0 0 1-1.885.46L348.45 571.7a3.23 3.23 0 0 1 1.715.784l55.043-57.847a3.246 3.246 0 0 1-.93-2.51 3.244 3.244 0 0 1 1.36-2.4zm4.072 5.017a3.216 3.216 0 0 1-2.435.851 3.24 3.24 0 0 1-1.915-.812l-55.025 57.863a3.2 3.2 0 0 1 .9 1.92l106.672-7.688a3.235 3.235 0 0 1 .891-2.35l-49.088-49.784zm-3.868-5.15a3.227 3.227 0 0 1 2.48-.36l10.888-36.757-55.198-29.032c-.236.412-.56.766-.942 1.038l42.772 65.111zm4.83 2.065a3.28 3.28 0 0 1 .04 1.212l53.573 10.35 1.703-22.85a3.273 3.273 0 0 1-2.753-2.302l-52.564 13.59zm-2.128-2.36a3.242 3.242 0 0 1 2.071 2.148l52.56-13.601a3.245 3.245 0 0 1-.072-.947c.034-.417.147-.81.32-1.166l-44-23.144-10.88 36.71zm1.322 5.29l49.088 49.785a3.216 3.216 0 0 1 2.327-.842l2.987-40.083-53.6-10.354a3.233 3.233 0 0 1-.802 1.495zM375.636 660.8l83.25-91.72a3.222 3.222 0 0 1-.962-1.978l-106.672 7.687c.004.12 0 .24-.01.362a3.223 3.223 0 0 1-2.216 2.838l23.739 82.135a3.233 3.233 0 0 1 1.031-.087 3.27 3.27 0 0 1 1.84.762zm.77.946l74.259-36.297a3.233 3.233 0 0 1 3.273-4.534l6.677-50.957a3.251 3.251 0 0 1-1.554-.72L375.8 660.947c.242.233.447.503.607.799zm-83.48-123.994a3.23 3.23 0 0 1 1.258 2.808c-.037.49-.18.945-.403 1.346l51.525 31.235a3.237 3.237 0 0 1 2.922-1.462l12.541-126.63c-.5-.068-.96-.246-1.355-.508l-66.488 93.211zm109.592-187.529a3.228 3.228 0 0 1-2.42.829 3.184 3.184 0 0 1-.903-.197l-36.653 88.042a3.257 3.257 0 0 1 1.359 1.166l76.476-46.56a3.225 3.225 0 0 1-.404-1.83c.06-.78.39-1.47.892-1.992l-38.347-39.458zm.157-.153l38.36 39.447a3.251 3.251 0 0 1 2.406-.83 3.243 3.243 0 0 1 2.732 1.956l68.201-26.513a3.215 3.215 0 0 1-.16-1.375l-110.682-14.393a3.197 3.197 0 0 1-.857 1.708zm-38.655 90.187c.298.527.452 1.143.414 1.792l61.97 6.155 15.764-53.218a3.22 3.22 0 0 1-1.666-1.278l-76.482 46.549zm.1 2.988l55.159 29.008 7.06-23.83-61.927-6.15a3.225 3.225 0 0 1-.292.972zm191.947-87.876l7.314 25.097 8.891-8.99-15.132-16.714a3.233 3.233 0 0 1-1.073.607zm-66.481 99.11a3.271 3.271 0 0 1 1.116-2.03l-45.589-57.916a3.227 3.227 0 0 1-1.1.518l12.34 56.128 33.233 3.3zm1.424 3.136a3.247 3.247 0 0 1-1.448-2.913l-33.158-3.293 9.355 42.548a3.235 3.235 0 0 1 2.579.635l22.672-36.977zm-44.754-66.76c.11.315.172.65.18.998l75.485 1.078-4.116-26.644a3.248 3.248 0 0 1-3.344-1.935l-68.205 26.503zm.01 2.114l80.453 31.022-4.764-30.836-75.523-1.08-.006.093a3.19 3.19 0 0 1-.16.801zm-2.488 2.133a3.274 3.274 0 0 1-.82.04 3.222 3.222 0 0 1-.556-.088l-15.758 53.174 29.463 2.927-12.33-56.053zM557.5 437.57l21.743 26.42.902-25.182-9.646-33.075-13.57 26.58a3.247 3.247 0 0 1 1.65 3.08 3.2 3.2 0 0 1-1.079 2.177zm-54.526 125.856l7.378-27.912a3.262 3.262 0 0 1-2.303-3.339c.008-.089.019-.177.033-.263l-43.584-8.42-2.993 40.057a3.201 3.201 0 0 1 2.873 3.08l34.634-.146.008-.146c.124-1.784 1.685-3.11 3.468-2.986.166.013.328.038.486.075zm-2.906 5.555a3.225 3.225 0 0 1-1.055-2.263l-34.636.135a3.315 3.315 0 0 1-.009.154c-.124 1.784-1.684 3.11-3.455 2.986a3.318 3.318 0 0 1-.077-.007l-6.688 50.956a3.23 3.23 0 0 1 1.47.647l44.45-52.608zm4.096.212l19.612 28.608c.295-.185.62-.324.965-.407l-12.905-61.786a3.22 3.22 0 0 1-1.265-.036l-7.385 27.911a3.257 3.257 0 0 1 2.287 3.35 3.239 3.239 0 0 1-1.309 2.36zm-.192.132a3.21 3.21 0 0 1-.385.208l22.524 54.426 3.446-7.455a3.246 3.246 0 0 1-1.761-3.125 3.24 3.24 0 0 1 1.867-2.698l-3.006-7.118c-.427.164-.895.24-1.38.206a3.248 3.248 0 0 1-2.997-3.482 3.187 3.187 0 0 1 1.303-2.355l-19.611-28.607zm-1.42.48l5.375 90.309a3.25 3.25 0 0 1 1.349.256l16.706-36.134-22.605-54.617a3.171 3.171 0 0 1-.825.186zm-33.733-70.57a3.229 3.229 0 0 1-2.594 1.153l-1.71 22.878 43.61 8.426c.103-.436.29-.836.545-1.182l-39.851-31.274zm-3.287-5.229l-9.375-42.623-29.579-2.938-7.088 23.919 44.044 23.164a3.273 3.273 0 0 1 1.998-1.522z"/></g></svg>