<svg xmlns="http://www.w3.org/2000/svg" width="45" height="52"><path fill="#DE7426" d="M23.912 24.678l5.768-5.767c-1.202-.842-2.764-1.322-4.446-1.322A8.36 8.36 0 0 0 16.822 26a8.36 8.36 0 0 0 8.412 8.411c2.283 0 4.446-.961 5.887-2.523l1.683 1.682c-1.923 2.043-4.566 3.244-7.57 3.244A10.77 10.77 0 0 1 14.419 26a10.77 10.77 0 0 1 10.815-10.814c2.283 0 4.446.72 6.248 2.042l3.485-3.484c-2.644-2.163-6.008-3.365-9.733-3.365A15.59 15.59 0 0 0 9.613 26a15.59 15.59 0 0 0 15.62 15.62c4.326 0 8.172-1.802 11.055-4.565l1.683 1.682c-3.245 3.244-7.81 5.287-12.737 5.287C15.26 44.024 7.21 35.974 7.21 26c0-9.973 8.05-18.024 18.024-18.024 4.325 0 8.29 1.562 11.415 4.085l3.364-3.364c-3.965-3.485-9.132-5.527-14.78-5.527-12.616 0-22.83 10.213-22.83 22.83 0 12.617 10.214 22.83 22.83 22.83 6.249 0 12.017-2.523 16.102-6.729l1.682 1.683c-4.446 4.686-10.814 7.45-17.783 7.45C11.295 51.234 0 39.939 0 26 0 12.061 11.295.766 25.234.766c6.368 0 12.136 2.283 16.462 6.129l.24-.24c.72-.722 1.802-.722 2.523 0 .721.72.721 1.802 0 2.523L26.435 27.202c-.36.36-.84.48-1.322.48-.48 0-.96-.12-1.321-.48-.48-.601-.48-1.803.12-2.524z"/></svg>