<svg xmlns="http://www.w3.org/2000/svg" width="38" height="31"><g fill="none" fill-rule="evenodd"><path fill="#772463" d="M17.061 15.292l8.403-5.062-8.403-5.063v10.125"/><path fill="#51AF46" d="M8.66 20.355l8.401-5.063-8.4-5.062v10.125"/><path fill="#D776A4" d="M17.061 5.167l-8.4 5.063 8.4 5.062V5.167"/><path fill="#00B3D2" d="M.258 25.417l8.402-5.062-8.402-5.063v10.125"/><path fill="#006FAC" d="M8.66 20.355L.258 25.417l8.402 5.061V20.355"/><path fill="#DB4D8F" d="M.258 15.292l8.402-5.061L.258 5.167v10.125"/><path fill="#772463" d="M8.66 10.23L.258 15.293l8.402 5.063V10.23"/><path fill="#EE9C54" d="M8.66.106L.258 5.167l8.402 5.064V.106"/><path fill="#00B3D2" d="M25.464 10.23L17.06 5.167 25.464.106V10.23"/><path fill="#E5722A" d="M17.061 15.292l8.403 5.063-8.403 5.062V15.292"/><path fill="#007F57" d="M17.061 25.417l-8.4-5.062 8.4-5.063v10.125"/><path fill="#EE9C54" d="M25.464 20.355l-8.403 5.062 8.403 5.061V20.355"/><path fill="#4EAF55" d="M29.19 20.355V10.23"/><path fill="#00B3D2" d="M37.593 5.167l-8.402 5.064 8.402 5.061V5.167"/><path fill="#006FAC" d="M29.19 10.23l8.403-5.063L29.191.106v10.125"/><path fill="#DB4D8F" d="M37.593 15.292l-8.402 5.063 8.402 5.062V15.292"/><path fill="#772463" d="M29.19 20.355l8.403-5.063-8.402-5.061v10.124"/><path fill="#51AF46" d="M29.19 30.478l8.403-5.061-8.402-5.062v10.123"/></g></svg>