<svg xmlns="http://www.w3.org/2000/svg" width="60" height="58"><g fill="none" fill-rule="evenodd"><path fill="#DC3939" fill-rule="nonzero" d="M50.199 27.91a15.527 15.527 0 0 0-5-1.084v-7.549a2.577 2.577 0 0 0-2.576-2.571H2.576A2.577 2.577 0 0 0 0 19.277v8.745a2.577 2.577 0 0 0 2.576 2.572h31.572a15.714 15.714 0 0 0-2.021 2.092H2.576A2.577 2.577 0 0 0 0 35.258v8.745a2.577 2.577 0 0 0 2.576 2.571H29.32C31.156 53.154 37.198 58 44.366 58 52.986 58 60 51 60 42.394c0-6.408-3.848-12.094-9.801-14.484zM2.576 29.054c-.57 0-1.033-.463-1.033-1.03v-8.746c0-.569.464-1.031 1.033-1.031h40.046c.57 0 1.034.463 1.034 1.031v7.543a15.598 15.598 0 0 0-7.4 2.233H2.576zm26.398 15.98H2.576c-.57 0-1.033-.462-1.033-1.03v-8.745c0-.57.464-1.032 1.033-1.032h28.482a15.444 15.444 0 0 0-2.325 8.168c0 .901.094 1.78.241 2.64zM2.576 13.89h40.046a2.577 2.577 0 0 0 2.577-2.572V2.571A2.577 2.577 0 0 0 42.622 0H2.576A2.577 2.577 0 0 0 0 2.571v8.745a2.577 2.577 0 0 0 2.576 2.573zM1.543 2.57c0-.569.464-1.03 1.033-1.03h40.046c.57 0 1.034.462 1.034 1.03v8.745c0 .57-.463 1.032-1.034 1.032H2.576c-.57 0-1.033-.463-1.033-1.032V2.571zm4.65 5.715c.74 0 1.343-.602 1.343-1.342a1.345 1.345 0 0 0-2.687 0c0 .74.602 1.342 1.343 1.342zm0-1.54a.2.2 0 0 1 .198.198c0 .22-.398.22-.398 0a.2.2 0 0 1 .2-.198zm5.592 1.54c.741 0 1.344-.602 1.344-1.342a1.345 1.345 0 0 0-2.687 0c0 .74.602 1.342 1.343 1.342zm0-1.54a.2.2 0 0 1 .2.198c0 .22-.399.22-.399 0a.2.2 0 0 1 .2-.198zm5.593 1.54c.741 0 1.344-.602 1.344-1.342a1.345 1.345 0 0 0-2.687 0c0 .74.602 1.342 1.343 1.342zm0-1.54a.2.2 0 0 1 .2.198c0 .22-.399.22-.399 0a.2.2 0 0 1 .2-.198zM6.192 22.309c-.74 0-1.343.603-1.343 1.342a1.345 1.345 0 0 0 2.687 0c0-.74-.603-1.342-1.344-1.342zm-.199 1.342a.2.2 0 0 1 .398 0c0 .219-.398.219-.398 0zm5.792-1.342c-.74 0-1.343.603-1.343 1.342a1.345 1.345 0 0 0 2.687 0c0-.74-.603-1.342-1.344-1.342zm-.199 1.342a.2.2 0 0 1 .398 0c0 .219-.398.219-.398 0zm5.792-1.342c-.74 0-1.343.603-1.343 1.342a1.345 1.345 0 0 0 2.687 0c0-.74-.603-1.342-1.344-1.342zm-.199 1.342a.2.2 0 0 1 .398 0c0 .219-.398.219-.398 0zM6.192 38.29c-.74 0-1.343.601-1.343 1.341a1.344 1.344 0 0 0 2.687 0c0-.74-.603-1.341-1.344-1.341zm-.199 1.341a.199.199 0 0 1 .398 0c0 .22-.398.22-.398 0zm5.792-1.341c-.74 0-1.343.601-1.343 1.341a1.344 1.344 0 0 0 2.687 0c0-.74-.603-1.341-1.344-1.341zm-.199 1.341a.199.199 0 0 1 .398 0c0 .22-.398.22-.398 0zm5.792-1.341c-.74 0-1.343.601-1.343 1.341a1.344 1.344 0 0 0 2.687 0c0-.74-.603-1.341-1.344-1.341zm-.199 1.341a.199.199 0 0 1 .398 0c0 .22-.398.22-.398 0z"/><path fill="#FFF" d="M53.09 38.858a9.291 9.291 0 0 0-10.555-5.67.769.769 0 0 0-.597.91.766.766 0 0 0 .913.597 7.763 7.763 0 0 1 8.806 4.732 7.73 7.73 0 0 1-2.017 8.62l.19-1.281a.77.77 0 0 0-1.527-.226l-.436 2.938a.77.77 0 0 0 .65.875l2.943.435a.77.77 0 0 0 .225-1.524l-.947-.14a9.26 9.26 0 0 0 2.353-10.266zm-7.084 11.027a7.752 7.752 0 0 1-8.808-4.732 7.725 7.725 0 0 1 2.304-8.855l-.21 1.412a.77.77 0 0 0 1.526.226l.437-2.94a.774.774 0 0 0-.65-.875l-2.945-.434a.77.77 0 0 0-.226 1.524l.817.12a9.264 9.264 0 0 0-2.488 10.39 9.29 9.29 0 0 0 10.557 5.671.769.769 0 1 0-.314-1.507z"/></g></svg>